<svg width="503" height="231" viewBox="0 0 503 231" fill="none" xmlns="http://www.w3.org/2000/svg">
<rect width="235.677" height="230.97" fill="#E18370"/>
<path d="M208.883 106.855C209.493 105.664 210.816 106.52 211.588 105.473C211.199 104.479 212.449 103.169 211.259 102.145C209.721 102.032 208.297 101.924 206.783 101.816V86.1007C208.853 85.4424 208.877 85.3706 208.153 82.2885C207.142 82.1329 206.113 81.9773 205.131 81.8217C204.874 76.5194 204.874 76.5194 206.525 74.9514C205.484 74.3231 204.952 73.5211 204.766 72.2045C203.97 66.6149 202.774 61.0792 202.062 55.4776C201.696 52.593 201.182 49.5169 203.007 46.8718C202.02 44.9328 202.02 44.9328 200.087 45.2559C200.524 45.8125 200.901 46.2913 201.361 46.8777C200.643 47.183 200.075 47.4223 199.788 47.542C200.087 49.0142 200.548 50.2171 200.53 51.4141C200.494 53.4907 200.248 55.5733 199.937 57.632C199.237 62.2402 198.387 66.8184 197.711 71.4265C197.502 72.8389 197.239 74.1076 195.892 74.8317C198.046 77.0939 196.784 79.5596 197.005 81.8576C193.517 82.3065 193.517 82.3065 193.744 85.4484C194.324 85.6698 194.947 85.9092 195.647 86.1725V101.78C193.977 101.936 192.445 102.08 190.722 102.241V105.694C191.608 106.071 192.816 106.197 193.283 106.855C194.701 108.86 195.88 110.925 195.844 113.66C195.701 125.03 195.784 136.401 195.79 147.766C195.79 153.852 195.79 159.933 195.796 166.013C195.796 167.449 195.743 168.868 194.785 169.969C192.787 166.917 190.932 163.984 188.951 161.141C188.406 160.363 188.077 159.645 188.083 158.706C188.107 155.013 188.125 151.327 188.083 147.634C188.053 145.39 189.142 143.984 191.105 143.176V139.603C190.04 139.429 189.106 139.28 188.149 139.124V133.193C188.915 132.996 189.645 132.804 190.447 132.595C190.447 131.673 190.501 130.877 190.423 130.093C190.387 129.746 190.064 129.124 189.908 129.136C188.472 129.226 189.005 127.993 188.592 127.424C187.419 125.832 187.706 124.085 187.569 122.367C187.461 121.003 186.785 119.944 185.863 118.974C185.402 118.489 184.78 117.909 184.738 117.328C184.619 115.868 184.367 114.348 185.217 112.954C185.51 112.469 185.762 111.834 185.708 111.302C185.654 110.787 185.289 110.165 184.858 109.871C184.517 109.632 183.883 109.824 183.027 109.824C183.613 110.644 183.972 111.158 184.355 111.691C183.643 111.96 183.033 112.194 182.417 112.427C183.559 115.102 184.283 117.55 181.764 119.74C181.286 120.159 181.01 120.919 180.855 121.571C180.609 122.619 180.627 123.732 180.382 124.779C179.987 126.461 180.274 128.537 177.959 129.274V132.625C178.724 132.81 179.455 132.99 180.244 133.187C180.131 135.264 180.568 137.239 179.927 139.232C178.856 139.34 177.905 139.435 176.864 139.537V143.385C178.898 143.523 179.891 145.037 180.149 146.671C180.478 148.777 180.226 150.974 180.226 153.523C178.976 152.913 178.126 152.464 177.246 152.093C176.367 151.722 175.445 151.44 174.697 151.171C175.972 133.672 168.648 122.188 151.785 117.149C151.785 111.613 151.881 106.233 151.737 100.859C151.678 98.4709 152.904 96.7593 153.838 94.7903C154.562 93.2463 156.123 93.8807 157.051 92.965C157.003 91.8878 156.955 90.8285 156.901 89.6376C155.094 89.4641 153.485 89.3085 151.785 89.1409C151.785 84.3772 151.815 79.9007 151.761 75.4242C151.743 73.8563 152.581 73.1202 153.88 72.8449C153.975 69.7628 153.975 69.7628 150.457 69.1883V66.8902C150.457 65.9925 150.331 65.0709 150.505 64.2091C150.642 63.5269 151.151 62.9224 151.6 62.1025C150.295 61.5639 149.972 60.379 149.888 59.0564C149.834 58.2604 149.775 57.4645 149.643 56.6805C148.769 51.5038 147.728 46.3451 147.07 41.1445C146.825 39.1875 146.424 37.057 147.812 35.0941C148.698 33.8313 147.985 32.7541 146.346 32.3292C146.16 32.2813 145.885 32.5506 145.532 32.7362C145.981 33.3227 146.364 33.8194 146.837 34.4418C145.993 34.6452 145.359 34.8008 144.784 34.9385C145.101 35.7584 145.58 36.4646 145.616 37.1887C145.712 38.9781 145.813 40.8034 145.55 42.5629C144.682 48.4457 143.677 54.3046 142.654 60.1635C142.516 60.9415 141.972 61.6477 141.577 62.4616C143.24 64.4784 142.414 66.9261 142.391 69.3918C141.254 69.4815 140.29 69.5653 139.369 69.6371C138.722 72.8808 138.728 72.8927 140.877 73.551C140.877 76.0885 140.901 78.6738 140.865 81.2592C140.829 83.9163 141.032 86.5855 140.751 89.1409C139.022 89.3264 137.58 89.476 136.066 89.6376V93.1206C136.963 93.4438 138.13 93.4917 138.507 94.0602C139.626 95.7658 140.913 97.4475 140.889 99.7097C140.829 104.497 140.871 109.285 140.877 114.073V117.34C140.212 117.58 139.764 117.783 139.297 117.897C127.359 120.734 117.863 132.535 118.108 144.929C118.15 147.012 118.114 149.094 118.114 151.111C116.355 151.847 114.733 152.53 112.681 153.391C112.681 151.494 112.717 150.016 112.669 148.532C112.591 145.929 113.423 143.912 116.265 143.08C116.014 141.835 116.63 140.65 115.834 139.477C114.859 139.411 113.895 139.346 112.824 139.274V133.169C113.608 132.954 114.326 132.757 114.967 132.583V129.513C114.398 129.28 113.955 129.094 113.53 128.914C112.986 126.551 112.017 124.342 112.058 121.841C112.07 120.913 111.197 119.872 110.515 119.058C109.97 118.411 109.719 117.813 109.575 116.987C109.3 115.353 109.587 113.893 110.162 112.373C110.401 111.751 110.209 110.793 109.856 110.195C109.629 109.794 108.773 109.752 108.199 109.554C108.109 109.698 108.013 109.836 107.918 109.979C108.283 110.53 108.648 111.074 109.037 111.667C108.366 111.918 107.852 112.11 107.361 112.295C107.397 112.624 107.385 112.822 107.445 113.001C108.235 115.425 108.654 117.693 106.44 119.782C105.662 120.518 105.327 121.865 105.087 123.002C104.668 124.989 104.477 127.029 104.208 128.932C103.531 129.154 103.089 129.297 102.7 129.423V132.691C103.531 132.864 104.172 132.996 104.74 133.116V139.196C103.543 139.364 102.514 139.507 101.515 139.651V143.307C103.855 144.049 104.878 145.414 104.902 147.921C104.938 151.512 104.92 155.103 104.866 158.694C104.86 159.352 104.788 160.196 104.393 160.639C101.766 163.541 99.8813 166.911 97.8468 170.95C97.5775 168.909 97.2245 167.455 97.2185 166.007C97.1826 148.855 97.2664 131.697 97.1467 114.545C97.1228 111.374 97.8408 108.693 99.9112 106.293C100.695 106.125 101.533 105.94 102.424 105.742C102.365 104.527 102.317 103.474 102.251 102.115C100.587 102.056 99.0017 102.002 97.3382 101.942V86.0708C97.9964 85.7835 98.511 85.5621 99.1094 85.3048C99.0436 84.2515 98.9777 83.2939 98.9059 82.2107C97.8588 82.127 97.0031 82.0611 95.9559 81.9773C96.1534 79.4878 95.0284 77.046 97.0091 74.8317C95.8482 74.3709 95.4832 73.581 95.3037 72.3541C94.4779 66.6688 93.2811 61.0313 92.569 55.334C92.2459 52.7546 91.7852 50.0197 93.1973 47.4523C93.9034 46.1656 93.1136 45.1362 91.4441 44.9028C91.2466 44.8729 91.0132 45.1302 90.7559 45.2739C91.1569 45.8245 91.4919 46.2733 91.9407 46.8837C91.2107 47.171 90.6363 47.3984 90.0379 47.6318C91.0791 49.3075 91.1868 49.3135 91.0731 50.9652C90.8936 53.5326 90.6303 56.1 90.2593 58.6434C89.613 63.0541 88.7813 67.4408 88.2128 71.8634C88.0333 73.2398 87.5426 74.2273 86.3698 74.8676C87.782 76.5074 87.9734 78.2549 87.2674 81.9295C83.9882 82.3005 83.9882 82.3005 84.3233 85.4544C84.9217 85.6998 85.538 85.9511 86.1125 86.1845C86.4894 90.278 86.3877 99.6259 85.9389 101.762C84.4071 101.912 82.8692 102.062 81.1937 102.229V105.64C82.2469 106.125 83.4197 106.287 83.8925 106.951C85.3944 109.046 86.3997 111.254 86.3758 114.085C86.2262 130.937 86.3219 147.79 86.274 164.648C86.268 166.695 85.8552 168.742 85.6577 170.615C85.8851 171.836 86.274 172.955 86.286 174.074C86.3339 182.854 86.3099 191.627 86.304 200.406C86.304 200.987 86.2441 201.561 86.2082 202.285C84.5208 202.399 82.9829 202.501 81.2177 202.621C81.1758 203.794 81.104 204.757 81.104 205.721C81.092 212.8 81.098 219.886 81.0801 226.966C81.0741 227.487 81.0441 229.485 80.9963 230.952C99.8514 230.952 118.706 230.952 137.568 230.958C146.92 230.958 156.273 230.994 165.632 230.952C176.169 230.898 186.707 230.736 197.25 230.688C200.907 230.67 207.812 230.688 211.468 230.7C211.468 227.612 211.54 223.112 211.54 220.137C211.54 217.247 211.564 214.356 211.534 211.466C211.51 208.509 211.66 205.547 211.444 202.555C209.721 202.459 208.279 202.375 206.681 202.285V198.79C206.681 191.711 206.621 184.631 206.717 177.551C206.747 175.307 206.119 172.979 207.273 170.795C207.423 170.513 207.172 170.029 207.124 169.64C206.974 168.467 206.705 167.294 206.699 166.121C206.675 148.568 206.681 131.015 206.681 113.462C206.681 112.864 206.645 112.259 206.693 111.667C206.849 109.8 208.075 108.429 208.883 106.855ZM201.002 59.7087C202.277 64.3767 202.666 69.1943 203.653 74.1076H198.884C199.052 69.1883 200.601 64.5383 201.002 59.7087ZM198.573 75.7594H203.557V81.9295C202.774 81.9833 201.93 82.0611 201.08 82.091C200.302 82.115 199.524 82.097 198.573 82.097V75.7594V75.7594ZM197.25 86.0947C199.752 85.6339 202.337 85.6758 205.089 85.981C205.628 88.6083 205.281 91.1756 205.341 93.7131C205.401 96.2865 205.353 98.8599 205.353 101.78H197.25V86.0947ZM191.65 104.234C192.098 103.947 192.374 103.618 192.655 103.612C198.316 103.588 203.976 103.6 209.643 103.624C209.811 103.624 209.972 103.803 210.696 104.21C209.942 104.521 209.643 104.743 209.326 104.767C204.599 105.132 193.72 104.838 191.65 104.234ZM195.18 175.558C195.563 176.653 195.749 177.88 195.755 179.053C195.802 186.414 195.772 193.775 195.761 201.136C195.761 201.424 195.683 201.711 195.599 202.309C194.576 202.345 193.529 202.405 192.475 202.423C191.392 202.441 190.309 202.429 189.286 202.429C188.795 189.209 190.13 176.151 188.341 163.11C191.59 166.761 193.606 171.052 195.18 175.558ZM183.972 119.674C186.509 121.781 186.527 121.829 186.067 126.144H182.081C182.297 123.869 181.19 121.416 183.972 119.674ZM179.072 131.111C180.095 130.135 181.208 130.596 182.171 130.524C183.254 130.441 184.349 130.506 185.438 130.506H188.628C186.563 131.739 182.716 131.763 179.072 131.111ZM181.609 132.996H186.246V139.262H181.872C181.238 137.335 181.687 135.294 181.609 132.996ZM178.593 141.853C178.455 141.853 178.318 141.62 177.941 141.273C180.101 140.596 186.791 140.507 190.01 141.081C189.723 141.422 189.513 141.877 189.298 141.883C185.732 141.913 182.159 141.889 178.593 141.853ZM185.103 166.964C184.822 166.145 184.313 165.654 183.404 165.791C183.398 165.815 183.386 165.839 183.38 165.863C183.356 165.887 183.338 165.905 183.32 165.929C183.326 165.989 183.32 166.049 183.302 166.097C181.537 170.112 181.375 174.331 181.441 178.64C181.555 185.606 181.477 192.572 181.483 199.545V202.291H179.903V180.274C179.903 178.084 179.903 175.893 179.891 173.703C179.885 170.597 181.22 168.096 183.32 165.929V165.803C183.35 165.797 183.38 165.791 183.404 165.791C183.589 165.295 183.781 164.774 184.098 163.918C185.091 165.57 186.031 166.827 186.641 168.227C187.144 169.37 187.503 170.681 187.515 171.92C187.587 181.471 187.563 191.016 187.545 200.568C187.545 201.16 187.341 201.753 186.869 202.274C186.869 193.392 186.827 184.517 186.886 175.642C186.91 172.596 186.055 169.783 185.103 166.964ZM185.145 201.011H182.913C182.871 200.364 182.799 199.796 182.799 199.227C182.794 191.172 182.8 183.117 182.788 175.062C182.788 172.979 183.003 170.956 184.068 168.694C184.744 170.106 185.139 171.231 185.139 172.47C185.145 181.902 185.145 191.34 185.145 201.011ZM181.597 147.377C183.212 146.503 184.69 146.605 186.498 147.365V159.334C185.049 159.514 183.524 159.705 181.663 159.939C181.501 155.672 181.591 151.542 181.597 147.377ZM181.286 145.474C180.956 144.821 180.735 144.385 180.43 143.774H187.461C187.431 144.863 187.018 145.456 185.935 145.474C184.451 145.492 182.961 145.474 181.286 145.474ZM182.967 163.051C181.746 165.121 180.562 167.126 179.461 168.993C177.109 165.953 174.895 163.08 172.549 160.046C173.201 159.873 173.86 159.484 174.416 159.597C177.384 160.196 180.37 160.836 182.967 163.051ZM178.569 198.767V202.339H162.897C162.897 196.72 162.945 191.094 162.879 185.475C162.843 182.399 162.694 179.317 162.46 176.247C162.269 173.757 161.401 171.477 159.708 169.4C158.14 171.255 157.392 173.32 157.051 175.457C156.698 177.707 156.578 180.005 156.554 182.291C156.489 188.449 156.53 194.619 156.548 200.777C156.548 201.244 156.662 201.711 156.74 202.297H154.705V199.263C154.705 190.789 154.795 182.309 154.651 173.835C154.604 171.04 155.489 168.73 157.183 166.731C158.858 164.762 160.815 163.045 162.622 161.189C163.555 160.238 164.465 160.238 165.542 160.974C169.3 163.547 172.418 166.677 174.518 170.771C174.865 171.447 174.889 172.71 176.403 172.315C176.415 170.106 175.015 168.52 173.86 166.893C171.191 163.128 167.666 160.286 163.908 158.646C159.851 161.429 158.254 162.5 153.688 169.34C153.221 169.005 152.761 168.676 152.168 168.257C154.921 163.607 158.493 160.004 162.975 157.263C163.765 156.779 164.399 156.934 165.195 157.299C169.09 159.083 172.19 161.824 174.871 165.097C175.314 165.636 175.679 166.228 176.086 166.797C177.875 169.286 178.73 171.944 178.641 175.133C178.425 183.009 178.569 190.891 178.569 198.767ZM158.176 178.551C158.164 176.432 158.403 174.403 159.708 172.506C160.665 173.966 161.216 175.481 161.216 177.186V200.963H158.266C158.236 200.245 158.182 199.67 158.182 199.096C158.182 192.243 158.2 185.397 158.176 178.551ZM151.959 164.618C151.839 160.752 151.564 156.88 152.06 152.763C155.405 153.864 158.547 154.894 162.245 156.108C158.02 158.664 155.136 161.74 152.533 165.079C152.252 164.858 151.965 164.744 151.959 164.618ZM175.852 153.14C177.354 153.804 178.82 154.546 180.143 155.187V158.981C178.784 159.831 177.737 158.831 176.696 158.544C174.697 157.988 172.842 157.802 170.969 159.149C169.844 158.371 168.749 157.611 167.583 156.809C169.575 154.564 172.047 153.816 174.47 153.02C174.877 152.883 175.445 152.961 175.852 153.14ZM165.59 155.761C161.234 154.187 156.459 152.984 151.899 151.069C151.971 150.555 151.983 150.267 152.066 150.004C152.15 149.741 152.312 149.495 152.479 149.166H172.956C173.046 149.992 173.142 150.83 173.231 151.602C170.748 152.955 168.42 154.223 165.59 155.761ZM166.47 137.724C166.003 136.305 164.806 135.3 163.382 134.582C161.772 135.186 160.611 136.287 160.067 137.814C159.498 139.387 159.199 141.051 157.458 141.632C157.637 143.906 159.379 145.552 158.445 148.125C157.542 145.809 156.782 143.864 155.938 141.698C156.225 141.398 156.554 140.878 157.027 140.59C157.841 140.094 158.272 139.465 158.541 138.538C159.271 136.012 160.929 134.253 163.346 133.223C165.608 134.45 167.469 135.958 167.93 138.729C168.025 139.322 168.636 139.872 169.102 140.351C169.569 140.836 170.156 141.213 170.64 141.596C169.85 143.708 169.102 145.689 168.193 148.107C167.265 145.599 168.678 143.96 169.108 141.973C167.846 140.89 167.032 139.429 166.47 137.724ZM167.277 142.362C166.781 144.337 166.374 145.953 165.937 147.67H160.659C160.21 146.018 159.75 144.337 159.241 142.452C161.569 141.153 160.635 137.82 163.077 136.425C164.543 136.617 165.117 137.796 165.279 138.891C165.494 140.369 166.129 141.47 167.277 142.362ZM156.303 147.652H153.658C153.084 145.965 154.215 144.815 154.55 142.799C155.776 144.618 156.225 145.965 156.303 147.652ZM172.986 147.67H170.347C170.186 146.006 170.934 144.75 171.664 143.092C172.471 144.726 173.411 145.923 172.986 147.67ZM151.797 120.955C151.803 120.404 152.043 119.854 152.168 119.315C163.31 120.745 172.663 132.17 172.938 142.098C172.178 141.303 171.334 140.489 170.574 139.597C170.006 138.939 169.366 138.244 169.091 137.448C168.103 134.6 166.057 132.9 163.388 131.667C160.701 132.625 158.816 134.396 157.637 136.952C156.71 138.951 156.71 138.951 154.963 140.507C152.767 139.328 151.809 137.401 151.791 134.977C151.761 130.303 151.767 125.629 151.797 120.955ZM153.251 171.86V205.888H140.015C139.5 203.698 139.381 175.558 139.877 171.86H153.251V171.86ZM117.701 171.836C118.156 171.19 118.449 170.436 118.844 169.747C121.172 165.666 124.469 162.602 128.741 160.196C129.549 160.764 130.459 161.213 131.117 161.901C132.972 163.84 134.773 165.833 136.502 167.886C137.484 169.047 137.957 170.459 137.951 172.015C137.939 181.591 137.939 191.166 137.939 200.735C137.939 201.681 137.974 202.639 136.275 202.291C136.227 201.513 136.131 200.664 136.125 199.814C136.114 192.836 136.078 185.852 136.131 178.874C136.161 175.469 135.06 172.464 133.277 169.316C132.81 169.879 132.374 170.238 132.14 170.699C130.8 173.404 130.04 176.247 130.058 179.293C130.094 185.78 130.07 192.261 130.07 198.743V202.303H114.183C114.141 201.292 114.069 200.412 114.069 199.539C114.063 191.657 114.272 183.769 113.985 175.905C113.836 171.788 115.344 168.538 117.677 165.498C120.304 162.075 123.679 159.131 128.67 156.803C131.165 157.868 133.451 159.334 135.246 161.554C136.748 163.404 138.381 165.151 139.871 167.006C140.512 167.796 140.422 167.868 139.279 169.448C136.413 165.097 133.211 161.147 128.7 158.49C122.997 161.812 118.485 165.863 116.654 172.416C117.013 172.231 117.498 172.129 117.701 171.836ZM134.773 200.221C134.773 200.406 134.665 200.586 134.528 201.041H131.572C131.512 200.221 131.41 199.455 131.404 198.689C131.392 192.417 131.302 186.133 131.458 179.861C131.512 177.617 132.17 175.391 132.583 173.158C132.625 172.931 132.888 172.74 133.193 172.339C134.193 174.385 134.761 176.348 134.779 178.401C134.821 185.672 134.785 192.95 134.773 200.221ZM111.514 175.026C111.526 172.189 110.796 169.544 109.761 166.941C109.42 166.079 108.875 165.684 107.971 165.809C107.965 165.821 107.965 165.827 107.96 165.839C107.948 165.851 107.93 165.863 107.918 165.875C107.696 166.713 107.523 167.563 107.223 168.371C106.44 170.441 106.11 172.566 106.116 174.78C106.152 183.548 106.122 192.321 106.122 201.089V202.68C104.89 202.321 105.069 201.472 105.063 200.747C105.057 196.564 105.063 192.381 105.063 188.192C105.063 183.111 105.051 178.03 105.069 172.949C105.075 170.22 105.817 167.772 107.918 165.875C107.924 165.857 107.93 165.833 107.936 165.815C107.948 165.815 107.96 165.809 107.971 165.809C108.109 165.414 108.247 165.002 108.558 164.08C110.742 167.276 112.8 169.837 112.771 173.482C112.711 182.153 112.765 190.825 112.735 199.497C112.735 200.43 113.028 201.448 112.394 202.315C111.137 202.214 111.526 201.334 111.526 200.741C111.502 192.172 111.484 183.596 111.514 175.026ZM107.421 175.175C107.415 173.063 107.882 171.076 108.636 168.886C109.982 170.86 109.832 172.889 109.838 174.858C109.868 182.231 109.85 189.598 109.85 196.971V200.933H107.433V198.479C107.433 190.711 107.451 182.943 107.421 175.175ZM106.529 147.018H110.904C111.035 148.969 111.251 150.728 111.233 152.488C111.221 153.864 110.916 155.157 109.42 155.923C108.414 156.444 107.6 157.347 106.643 158.131C106.099 155.815 106.033 149.866 106.529 147.018ZM109.785 163.051C112.447 161.028 115.475 160.142 118.557 159.466C119.101 159.346 119.784 159.831 120.292 160.004C117.994 162.973 115.768 165.845 113.411 168.891C112.208 166.958 111.023 165.049 109.785 163.051ZM131.177 156.126C134.276 154.63 137.502 153.93 140.799 152.799V165.438C139.111 163.571 137.765 161.913 136.239 160.441C134.701 158.957 132.984 157.652 131.177 156.126ZM150.014 168.951C150.511 168.927 151.025 169.334 151.456 169.891H141.224C144.096 168.419 147.088 169.095 150.014 168.951ZM142.325 167.611V99.0155C144.934 98.6265 147.555 98.8359 150.337 98.8299V167.324C147.764 167.892 145.125 167.407 142.325 167.611ZM146.334 47.0453C146.43 47.0573 146.531 47.0692 146.627 47.0812C147.345 51.839 148.063 56.5967 148.805 61.5519H143.916C144.736 56.6206 145.538 51.833 146.334 47.0453ZM148.931 63.1857V69.4037H143.988V63.1857H148.931ZM142.612 73.3655H150.307V89.1828H142.558C142.043 86.6513 142.061 75.9209 142.612 73.3655ZM137.125 91.7382C137.502 91.427 137.747 91.038 137.998 91.032C143.563 90.9901 149.128 90.9841 154.693 91.0141C155.04 91.0141 155.381 91.4031 155.956 91.7562C153.12 92.3845 139.614 92.3546 137.125 91.7382ZM140.051 93.6114C144.389 93.4318 148.38 93.5814 152.605 93.5096C151.809 96.6037 150.182 97.9382 147.154 97.5014C145.52 97.262 143.821 97.4595 142.067 97.4595C141.415 96.2147 140.835 95.1015 140.051 93.6114ZM140.751 119.291C140.793 120.069 140.865 120.835 140.871 121.607C140.883 125.976 140.811 130.351 140.901 134.725C140.954 137.191 140.326 139.196 138.094 140.489C136.7 139.681 135.665 138.693 135.144 137.018C134.288 134.277 132.206 132.631 129.442 131.763C126.563 132.936 124.601 134.881 123.458 137.903C122.901 139.37 121.453 140.501 120.298 141.925C118.736 133.217 130.363 120.44 140.751 119.291ZM132.84 137.969C132.541 136.395 131.243 135.288 129.819 134.63C127.676 135.114 126.791 136.67 126.12 138.364C125.235 140.584 125.271 140.596 123.655 141.985C124.218 143.786 125.378 145.576 124.918 148.275C123.428 146.012 123.35 143.786 122.117 141.955C122.596 141.434 122.919 140.902 123.392 140.608C124.295 140.04 124.756 139.274 124.996 138.256C125.42 136.413 126.689 135.15 128.119 134.025C129.011 133.319 129.998 133.187 130.842 133.953C131.847 134.875 133.044 135.809 133.558 137C134.354 138.831 135.282 140.483 136.754 141.709C136.036 143.816 135.372 145.761 134.486 148.358C134.253 147.329 134.019 146.892 134.103 146.539C134.486 145.019 134.965 143.529 135.467 141.817C134.061 140.997 133.187 139.77 132.84 137.969ZM133.588 142.2C133.074 144.163 132.655 145.767 132.176 147.604C130.531 148.065 128.694 147.67 126.916 147.784C126.42 145.887 125.971 144.193 125.474 142.296C126.539 141.733 127.12 140.8 127.323 139.393C127.479 138.334 128.418 137.389 129.017 136.383C131.009 136.886 131.608 138.298 131.793 139.741C131.955 140.997 132.505 141.727 133.588 142.2ZM119.478 149.543C119.658 149.4 119.808 149.172 119.957 149.172C126.629 149.136 133.307 149.124 139.979 149.124C140.165 149.124 140.35 149.238 140.745 149.364C140.787 149.837 140.841 150.393 140.907 151.147C136.197 152.757 131.53 154.349 127.15 155.845C124.607 154.379 122.219 153.002 119.478 151.422V149.543ZM114.608 154.151C116.672 152.637 118.814 152.757 120.962 153.864C122.434 154.618 123.835 155.516 125.534 156.503C124.194 157.479 123.17 158.233 121.998 159.089C119.437 157.431 116.75 158.143 114.231 159.256C112.118 160.196 110.162 160.196 107.894 159.382C108.965 157.533 110.826 156.731 112.34 155.558C113.04 155.013 113.889 154.678 114.608 154.151ZM107.11 145.474C105.979 145.665 105.512 144.953 105.165 143.84C107.589 143.397 109.976 143.684 112.669 143.672C111.149 146.437 108.923 145.169 107.11 145.474ZM106.787 122.307C106.852 121.667 107.212 120.991 107.618 120.47C108.396 119.471 109.336 119.537 110.066 120.572C111.257 122.254 110.922 124.133 110.838 126.191H106.751C106.751 124.827 106.661 123.558 106.787 122.307ZM103.992 131.338C105.578 130.363 110.156 130.231 113.243 131.123C110.15 131.596 107.068 131.613 103.992 131.338ZM110.838 139.244H106.326V133.092H110.862C111.55 135.108 111.532 137.155 110.838 139.244ZM102.329 141.303C105.207 140.471 112.693 140.554 114.793 141.452C113.866 141.775 113.207 142.104 112.513 142.218C111.251 142.428 103.747 141.775 102.329 141.303ZM97.2305 178.742C97.2424 177.575 97.4459 176.366 97.7989 175.259C99.3966 170.328 101.88 165.881 105.548 161.471C105.051 163.296 104.555 164.583 104.369 165.911C104.064 168.167 103.801 170.447 103.783 172.722C103.717 181.489 103.759 190.256 103.759 199.024V202.321H97.386C97.3262 201.495 97.2185 200.729 97.2185 199.963C97.2005 192.89 97.1826 185.816 97.2305 178.742ZM91.4142 60.1516C92.4494 61.0253 92.2339 62.1983 92.3895 63.2516C92.5631 64.4245 92.7785 65.5915 92.9759 66.7645C93.1674 67.9315 93.3709 69.0985 93.5504 70.2715C93.7359 71.4325 93.9094 72.6055 94.1069 73.9161C92.7186 74.6103 91.2406 74.1076 89.248 74.3231C90.002 69.3918 90.6961 64.8375 91.4142 60.1516ZM89.0924 75.7653H94.0949V81.9235C93.2931 81.9773 92.4494 82.0551 91.6056 82.0851C90.8218 82.115 90.0439 82.091 89.0924 82.091V75.7653ZM87.776 85.9272H95.4174C95.9918 88.1834 96.0756 98.7162 95.561 101.774C94.9087 101.816 94.2326 101.882 93.5504 101.888C91.6834 101.906 89.8105 101.894 87.776 101.894V85.9272ZM81.9776 104.192C84.1917 103.51 95.2019 103.205 99.8454 103.582C100.163 103.612 100.462 103.827 101.018 104.06C100.551 104.426 100.366 104.701 100.151 104.719C95.7584 105.108 84.2515 104.844 81.9776 104.192ZM86.0945 107.681C85.9689 107.328 85.8312 106.981 85.5739 106.299C87.7161 105.928 89.6669 106.161 91.5877 106.119C93.5564 106.077 95.531 106.107 97.7092 106.107C97.5177 107.729 96.668 108.77 95.8302 110.039C93.7179 110.039 91.8211 109.895 89.9601 110.075C87.9615 110.266 86.7408 109.524 86.0945 107.681ZM86.9801 169.921C88.4701 168.347 90.0857 168.999 91.486 168.963C92.952 168.921 94.5198 168.574 95.92 169.245C95.8901 169.472 95.8602 169.693 95.8243 169.921H86.9801ZM95.7285 171.704V202.315H87.77V171.704H95.7285ZM87.6922 111.703C88.9488 110.991 90.361 111.475 91.7014 111.38C92.9759 111.296 94.2625 111.362 95.7165 111.362V167.515H88.0692C87.4169 165.199 87.1537 126.108 87.6922 111.703ZM123.027 217.588C122.997 221.364 123.021 225.141 123.021 229.168H82.8872V204.236H137.717C137.783 204.655 137.855 205.104 137.933 205.589C137.586 205.727 137.316 205.924 137.053 205.924C133.469 205.954 129.884 205.954 126.3 205.972C125.337 205.978 124.373 206.044 123.164 206.092C122.877 210.077 123.063 213.836 123.027 217.588ZM136.622 229.174H132.583C132.583 225.709 132.427 222.358 132.655 219.024C132.751 217.654 133.672 216.331 134.342 214.68C135.766 216.277 136.586 217.672 136.61 219.413C136.652 222.573 136.622 225.733 136.622 229.174ZM145.514 229.186H137.933C137.933 225.931 137.903 222.771 137.939 219.617C137.974 216.822 136.67 214.763 134.588 212.896C132.386 214.847 131.159 217.055 131.231 219.952C131.302 222.926 131.249 225.907 131.249 229.066C129.124 229.497 127.084 229.264 125.073 229.228C124.577 226.96 124.493 210.688 124.924 207.63H145.514V229.186ZM160.085 229.12H156.447C156.285 225.5 156.237 221.843 156.495 218.21C156.572 217.121 157.398 216.086 158.032 214.686C159.618 216.535 160.145 218.157 160.103 220.036C160.037 223.01 160.085 225.984 160.085 229.12ZM161.976 229.348C161.886 228.426 161.76 227.672 161.748 226.918C161.724 224.626 161.766 222.334 161.736 220.042C161.7 217.199 160.396 214.967 158.284 212.914C155.77 214.931 154.777 217.498 154.717 220.491C154.663 223.273 154.705 226.062 154.705 229.013C152.21 229.569 149.763 229.24 147.339 229.234C146.884 226.948 146.759 212.615 147.172 207.713H167.834C167.954 207.827 168.031 207.887 168.091 207.959C168.151 208.037 168.247 208.12 168.247 208.204C168.253 215.075 168.253 221.945 168.253 228.983C166.26 229.629 164.202 229.108 161.976 229.348ZM209.823 204.093C210.331 206.415 210.499 222.986 210.092 228.875C210.026 228.947 209.972 229.037 209.894 229.09C209.817 229.15 209.721 229.21 209.637 229.21C197.095 229.246 184.553 229.27 172.011 229.3H169.575V205.96H165.895C162.61 205.966 159.325 205.954 156.04 205.978C155.016 205.99 154.538 205.613 154.783 204.542C154.843 204.476 154.903 204.398 154.981 204.332C155.052 204.272 155.136 204.195 155.22 204.183C155.615 204.141 156.01 204.093 156.405 204.093H209.823V204.093ZM200.984 168.963C202.45 168.909 204.012 168.58 205.766 169.424C203.462 170.172 200.314 170.256 196.568 169.765C197.933 168.323 199.566 169.005 200.984 168.963ZM197.28 111.505H205.221V167.276C202.576 167.874 200.027 167.473 197.514 167.533C196.987 165.235 196.79 117.502 197.28 111.505ZM205.161 202.333H197.574C196.969 200.323 196.772 177.18 197.346 171.782H204.946C205.484 173.733 205.682 195.876 205.161 202.333ZM205.472 110.033C202.971 110.033 200.506 110.099 198.052 110.009C196.503 109.949 195.886 108.992 195.348 106.113C198.74 106.113 202.097 106.107 205.448 106.119C206.011 106.125 206.567 106.209 207.477 106.281C206.753 107.645 206.16 108.746 205.472 110.033Z" fill="#D97662"/>
<path d="M74.3363 128.454C76.3468 128.651 77.4658 129.992 78.2617 131.494C79.5003 132.146 81.0023 131.081 82.1751 132.631C79.5302 133.463 76.9991 132.978 74.5397 133.002C72.1222 133.032 69.6569 133.361 66.6889 132.595C67.5147 132.128 67.8617 131.769 68.2208 131.757C70.2134 131.697 72.206 131.739 74.1986 131.715C74.8569 131.709 75.5091 131.601 76.2511 131.53C75.6048 129.268 74.1508 130.231 72.954 130.59C72.3676 126.401 71.3743 125.048 69.1064 125.18C67.0958 125.3 66.1025 126.706 65.923 129.866C64.6305 129.698 63.2961 128.621 62.0514 129.621C61.5966 129.986 61.4171 130.704 61.1538 131.183C62.2489 132.29 64.0321 130.931 64.7262 132.816C62.2968 133.146 59.993 133.217 57.1207 132.673C57.9106 132.164 58.2636 131.961 58.5928 131.721C58.9518 131.458 59.4784 131.218 59.598 130.859C60.358 128.549 62.0335 127.586 64.445 127.466C65.3306 124.917 67.1197 123.66 69.8723 123.875C71.9966 124.043 73.1993 125.198 74.3363 128.454Z" fill="#D97662"/>
<path d="M221.036 76.7109C217.679 75.0831 217.093 75.2686 215.878 77.9616C216.758 79.0089 218.391 77.7342 219.546 79.2423C216.913 80.0024 214.592 79.7331 212.234 79.4877C212.252 77.9796 213.359 78.5661 213.862 78.3566C214.568 77.1956 215.04 75.9329 215.926 75.113C216.656 74.4427 217.877 74.317 219.277 73.8024C220.258 71.624 222.065 70.0381 225.129 70.5647C227.104 70.8998 228.031 71.8334 229.138 74.8257C231.634 75.9568 231.634 75.9568 233.07 78.1531C234.147 78.7755 235.589 77.9138 236.624 78.8354C236.481 79.1765 236.427 79.4698 236.331 79.4877C233.979 79.8947 223.801 79.763 221.413 79.2244C222.137 78.8414 222.544 78.4524 222.969 78.4284C224.357 78.3447 225.752 78.3985 227.146 78.3985C228.426 78.3985 229.707 78.3985 231.077 78.3985C230.203 76.5134 230.203 76.5134 227.708 77.2674C227.66 76.3638 227.678 75.5199 227.553 74.6941C227.307 73.0962 225.859 71.9052 224.22 71.8574C222.538 71.8035 221.216 72.6354 220.851 74.1854C220.701 74.8377 220.941 75.6037 221.036 76.7109Z" fill="#D97662"/>
<path d="M195.653 218.121H187.503C187.646 221.705 187.341 225.129 187.706 228.642C190.525 228.689 193.158 228.881 195.862 228.54C195.755 224.901 196.042 221.556 195.653 218.121ZM194.001 227.277H188.975V219.808C189.783 219.754 190.632 219.671 191.476 219.641C192.26 219.611 193.044 219.635 194.001 219.635V227.277Z" fill="#D97662"/>
<path d="M207.148 219.102C207.142 218.833 206.932 218.569 206.747 218.139H199.022V228.6H207.16C207.16 225.242 207.172 222.172 207.148 219.102ZM205.401 227.283H200.422C199.895 224.913 200.344 222.465 200.147 219.826H205.401V227.283Z" fill="#D97662"/>
<path d="M184.505 217.917C181.549 218.151 178.922 217.66 176.187 218.216C176.187 220.036 176.133 221.717 176.205 223.399C176.277 225.135 175.852 226.918 176.463 228.564H184.283C184.379 228.151 184.493 227.87 184.499 227.594C184.511 224.524 184.505 221.448 184.505 217.917ZM177.731 227.319C177.36 224.764 177.438 222.28 177.671 219.707H182.452C184.14 221.999 182.057 224.62 183.182 227.116C181.292 227.612 179.652 227.385 177.731 227.319Z" fill="#D97662"/>
<path d="M176.343 207.121V215.392H184.349V207.151C181.573 206.971 178.97 206.971 176.343 207.121ZM182.704 214.039H177.839C177.217 212.214 177.617 210.466 177.528 208.569C179.239 208.114 180.867 208.396 182.704 208.396V214.039Z" fill="#D97662"/>
<path d="M187.694 207.378V215.416C190.483 215.469 193.11 215.733 195.778 215.23V207.594C194.001 206.888 190.818 206.798 187.694 207.378ZM194.049 213.818C191.739 214.308 191.626 214.308 189.041 213.8C188.765 212.034 188.682 210.239 189.1 208.462H194.049V213.818Z" fill="#D97662"/>
<path d="M206.765 207.013C204.186 207.121 201.559 206.804 198.812 207.259C199.046 210.119 198.573 212.764 199.135 215.434H206.609C207.339 213.231 207.399 209.772 206.765 207.013ZM205.395 214.045H200.542C199.854 212.256 200.314 210.49 200.207 208.617C201.864 208.073 203.51 208.444 205.395 208.36V214.045V214.045Z" fill="#D97662"/>
<path d="M94.1069 219.473C94.1009 219.096 93.9513 218.725 93.8316 218.163H85.909V228.654C88.6616 228.743 91.2885 228.761 94.1129 228.636C94.1129 225.41 94.1248 222.442 94.1069 219.473ZM92.2997 227.277H87.3391C86.8126 224.895 87.2972 222.448 87.0639 219.82H92.2997V227.277Z" fill="#D97662"/>
<path d="M104.89 218.091H97.2783V228.6H105.452C105.452 226.619 105.53 224.937 105.428 223.261C105.321 221.544 105.937 219.713 104.89 218.091ZM103.777 227.151C102.059 227.666 100.408 227.271 98.6127 227.445V219.772H103.537C104.094 222.148 103.681 224.608 103.777 227.151Z" fill="#D97662"/>
<path d="M116.187 218.037H108.462C108.558 221.693 108.313 225.111 108.66 228.737C111.436 228.57 114.051 229.001 116.624 228.492C116.133 224.937 116.846 221.472 116.187 218.037ZM114.979 227.277H110.036C109.533 224.913 109.88 222.465 109.826 219.731H114.979V227.277Z" fill="#D97662"/>
<path d="M93.9933 206.971C91.109 207.187 88.4821 206.714 85.8792 207.307V215.446C88.7873 215.434 91.4082 215.757 94.1189 215.212C94.0591 212.411 94.2326 209.784 93.9933 206.971ZM92.3178 213.997H87.2854V208.485H92.3178V213.997Z" fill="#D97662"/>
<path d="M105.321 207.073C102.55 207.031 99.9411 206.947 97.2903 207.109V215.332H105.267C105.584 212.549 105.494 209.934 105.321 207.073ZM103.633 213.896C102.095 214.446 100.486 214.195 98.5589 213.973V208.497C100.21 208.174 101.844 208.414 103.633 208.33V213.896Z" fill="#D97662"/>
<path d="M116.223 207.181H108.63V215.374H116.492C116.337 212.441 116.696 209.796 116.223 207.181ZM114.991 213.967C113.369 214.374 111.723 214.141 109.94 214.123V208.497C111.568 208.204 113.201 208.342 114.991 208.414V213.967Z" fill="#D97662"/>
<path d="M127.096 176.606C126.982 173.506 124.978 171.202 122.644 168.933C120.131 171.686 118.084 174.278 118.09 177.946C118.096 183.033 118.084 188.114 118.102 193.201C118.102 193.877 118.216 194.547 118.294 195.457C121.238 195.828 124.062 195.726 126.809 195.535C126.994 195.188 127.168 195.02 127.168 194.847C127.174 188.766 127.311 182.68 127.096 176.606ZM125.887 193.889H119.395V190.274C119.395 186.498 119.401 182.716 119.389 178.934C119.383 175.923 120.532 173.422 122.578 171.202C124.678 172.943 125.779 175.08 125.845 177.521C125.983 182.877 125.887 188.24 125.887 193.889Z" fill="#D97662"/>
<path d="M174.901 179.233C174.901 175.229 173.321 171.968 170.162 169.083C167.469 171.567 165.59 174.248 165.482 177.689C165.315 183.057 165.404 188.431 165.434 193.805C165.446 195.355 165.751 195.613 167.439 195.661C169.126 195.708 170.82 195.696 172.513 195.667C174.697 195.625 174.877 195.463 174.889 193.261C174.919 188.587 174.895 183.907 174.901 179.233ZM173.219 193.859H167.074V189.317C167.074 185.936 167.182 182.548 167.05 179.173C166.924 176.115 167.72 173.5 170.06 171.202C171.843 172.853 173.136 174.792 173.183 177.24C173.291 182.698 173.219 188.156 173.219 193.859Z" fill="#D97662"/>
<path d="M146.346 148.412C148.063 150.064 148.177 151.686 147.991 153.385C147.836 153.523 147.704 153.75 147.549 153.762C144.533 154.056 143.982 153.355 145.071 150.513C145.335 149.825 145.843 149.226 146.346 148.412Z" fill="#D97662"/>
<path d="M146.065 137.867C148.003 139.627 148.279 141.249 147.944 143.182C147.315 143.337 146.765 143.589 146.214 143.589C144.94 143.577 144.311 142.894 144.617 141.739C144.928 140.554 145.466 139.435 146.065 137.867Z" fill="#D97662"/>
<path d="M145.957 116.981C148.045 118.549 148.195 120.201 147.991 122.29C147.214 122.409 146.478 122.649 145.765 122.601C144.82 122.535 144.365 121.829 144.605 120.931C144.922 119.728 145.406 118.567 145.957 116.981Z" fill="#D97662"/>
<path d="M146.609 127.73C148.033 129.058 148.255 130.728 147.962 132.727C147.405 132.804 146.849 132.972 146.304 132.948C144.766 132.876 144.521 132.517 144.826 130.913C145.053 129.675 145.077 128.304 146.609 127.73Z" fill="#D97662"/>
<path d="M201.403 122.708C201.792 123.421 202.247 124.043 202.492 124.737C203.51 127.622 203.073 128.142 199.919 127.969C199.159 125.312 199.303 124.755 201.403 122.708Z" fill="#D97662"/>
<path d="M201.403 143.529C202.45 145.39 203.492 146.928 202.295 148.939C201.487 148.939 200.721 148.939 199.973 148.939C198.902 147.868 199.417 145.671 201.403 143.529Z" fill="#D97662"/>
<path d="M203.186 159.256C201.685 159.256 200.805 159.256 199.824 159.256C199.105 157.413 199.656 155.863 200.769 154.247C203.103 155.241 202.636 157.222 203.186 159.256Z" fill="#D97662"/>
<path d="M199.572 138.149C199.309 136.126 199.614 134.588 201.284 133.229C201.768 134.025 202.223 134.624 202.516 135.294C202.911 136.192 203.444 137.263 202.51 138.035C201.595 138.795 200.512 138.454 199.572 138.149Z" fill="#D97662"/>
<path d="M90.1336 148.759C89.7506 146.85 89.996 145.139 91.7911 143.529C92.2519 144.313 92.7366 144.911 92.9819 145.599C94.0829 148.658 93.5923 149.208 90.1336 148.759Z" fill="#D97662"/>
<path d="M90.1456 128.005C89.8284 125.838 89.9601 124.091 91.6355 122.768C93.0717 123.594 93.0597 125.018 93.4307 126.185C93.8077 127.364 93.2392 127.969 91.8988 128.095C91.4141 128.136 90.9115 128.047 90.1456 128.005Z" fill="#D97662"/>
<path d="M91.7433 133.217C93.2452 134.696 93.5384 136.234 93.4307 138.25C92.3536 138.304 91.3483 138.352 90.2413 138.406C89.6848 136.317 90.1336 134.767 91.7433 133.217Z" fill="#D97662"/>
<path d="M91.6176 154.229C93.2093 156.007 93.3709 156.456 93.3769 158.909C92.4374 159.633 91.3902 159.358 90.2294 159.161C89.637 157.287 90.1456 155.755 91.6176 154.229Z" fill="#D97662"/>
<rect x="235.677" width="225.321" height="230.97" fill="#FFF2E9"/>
<g opacity="0.5">
<circle cx="350.528" cy="29.0582" r="2.45276" fill="white"/>
<circle cx="369.169" cy="29.0582" r="2.45276" fill="white"/>
<circle cx="406.451" cy="29.0582" r="2.45276" fill="white"/>
<circle cx="387.81" cy="29.0582" r="2.45276" fill="white"/>
<circle cx="369.169" cy="29.0582" r="2.45276" fill="white"/>
<circle cx="275.474" cy="28.8134" r="2.45276" fill="white"/>
<circle cx="294.115" cy="28.8135" r="2.45276" fill="white"/>
<circle cx="331.397" cy="28.8135" r="2.45276" fill="white"/>
<circle cx="312.756" cy="28.8135" r="2.45276" fill="white"/>
<circle cx="294.115" cy="28.8135" r="2.45276" fill="white"/>
<circle cx="350.528" cy="43.529" r="2.45276" fill="white"/>
<circle cx="369.169" cy="43.529" r="2.45276" fill="white"/>
<circle cx="406.451" cy="43.529" r="2.45276" fill="white"/>
<circle cx="387.81" cy="43.529" r="2.45276" fill="white"/>
<circle cx="369.169" cy="43.529" r="2.45276" fill="white"/>
<circle cx="275.474" cy="43.2845" r="2.45276" fill="white"/>
<circle cx="294.115" cy="43.2842" r="2.45276" fill="white"/>
<circle cx="331.397" cy="43.2842" r="2.45276" fill="white"/>
<circle cx="312.756" cy="43.2842" r="2.45276" fill="white"/>
<circle cx="294.115" cy="43.2842" r="2.45276" fill="white"/>
<circle cx="350.528" cy="57.7551" r="2.45276" fill="white"/>
<circle cx="369.169" cy="57.7551" r="2.45276" fill="white"/>
<circle cx="406.451" cy="57.7551" r="2.45276" fill="white"/>
<circle cx="387.81" cy="57.7551" r="2.45276" fill="white"/>
<circle cx="369.169" cy="57.7551" r="2.45276" fill="white"/>
<circle cx="275.474" cy="57.5109" r="2.45276" fill="white"/>
<circle cx="294.115" cy="57.5103" r="2.45276" fill="white"/>
<circle cx="331.397" cy="57.5103" r="2.45276" fill="white"/>
<circle cx="312.756" cy="57.5103" r="2.45276" fill="white"/>
<circle cx="294.115" cy="57.5103" r="2.45276" fill="white"/>
</g>
<circle opacity="0.6" cx="421.122" cy="120.122" r="69.1218" stroke="white" stroke-width="24"/>
</svg>
