<svg width="603" height="506" viewBox="0 0 603 506" fill="none" xmlns="http://www.w3.org/2000/svg">
<circle cx="291" cy="197" r="197" fill="#FFF2E9"/>
<g opacity="0.5">
<circle cx="89.3574" cy="72.6296" r="3.75451" transform="rotate(180 89.3574 72.6296)" fill="#F1AD9F"/>
<circle cx="60.8231" cy="72.6296" r="3.75451" transform="rotate(180 60.8231 72.6296)" fill="#F1AD9F"/>
<circle cx="3.75452" cy="72.6296" r="3.75451" transform="rotate(180 3.75452 72.6296)" fill="white"/>
<circle cx="32.2888" cy="72.6296" r="3.75451" transform="rotate(180 32.2888 72.6296)" fill="white"/>
<circle cx="60.8231" cy="72.6296" r="3.75451" transform="rotate(180 60.8231 72.6296)" fill="white"/>
<circle cx="204.245" cy="73.0038" r="3.75451" transform="rotate(180 204.245 73.0038)" fill="#F1AD9F"/>
<circle cx="175.711" cy="73.0043" r="3.75451" transform="rotate(180 175.711 73.0043)" fill="#F1AD9F"/>
<circle cx="118.643" cy="73.0043" r="3.75451" transform="rotate(180 118.643 73.0043)" fill="#F1AD9F"/>
<circle cx="147.177" cy="73.0043" r="3.75451" transform="rotate(180 147.177 73.0043)" fill="#F1AD9F"/>
<circle cx="175.711" cy="73.0043" r="3.75451" transform="rotate(180 175.711 73.0043)" fill="#F1AD9F"/>
<circle cx="89.3574" cy="46.4162" r="3.75451" transform="rotate(180 89.3574 46.4162)" fill="#F1AD9F"/>
<circle cx="60.8231" cy="46.4162" r="3.75451" transform="rotate(180 60.8231 46.4162)" fill="#F1AD9F"/>
<circle cx="3.75452" cy="46.4162" r="3.75451" transform="rotate(180 3.75452 46.4162)" fill="white"/>
<circle cx="32.2888" cy="46.4162" r="3.75451" transform="rotate(180 32.2888 46.4162)" fill="white"/>
<circle cx="60.8231" cy="46.4162" r="3.75451" transform="rotate(180 60.8231 46.4162)" fill="#F1AD9F"/>
<circle cx="204.245" cy="46.7901" r="3.75451" transform="rotate(180 204.245 46.7901)" fill="#F1AD9F"/>
<circle cx="175.711" cy="46.7908" r="3.75451" transform="rotate(180 175.711 46.7908)" fill="#F1AD9F"/>
<circle cx="118.643" cy="46.7909" r="3.75451" transform="rotate(180 118.643 46.7909)" fill="#F1AD9F"/>
<circle cx="147.177" cy="46.7908" r="3.75451" transform="rotate(180 147.177 46.7908)" fill="#F1AD9F"/>
<circle cx="175.711" cy="46.7908" r="3.75451" transform="rotate(180 175.711 46.7908)" fill="#F1AD9F"/>
<circle cx="89.3574" cy="21.2546" r="3.75451" transform="rotate(180 89.3574 21.2546)" fill="#F1AD9F"/>
<circle cx="60.8231" cy="21.2546" r="3.75451" transform="rotate(180 60.8231 21.2546)" fill="#F1AD9F"/>
<circle cx="3.75452" cy="21.2546" r="3.75451" transform="rotate(180 3.75452 21.2546)" fill="white"/>
<circle cx="32.2888" cy="21.2546" r="3.75451" transform="rotate(180 32.2888 21.2546)" fill="#F1AD9F"/>
<circle cx="60.8231" cy="21.2546" r="3.75451" transform="rotate(180 60.8231 21.2546)" fill="#F1AD9F"/>
<circle cx="204.245" cy="21.6287" r="3.75451" transform="rotate(180 204.245 21.6287)" fill="#F1AD9F"/>
<circle cx="175.711" cy="21.6293" r="3.75451" transform="rotate(180 175.711 21.6293)" fill="#F1AD9F"/>
<circle cx="118.643" cy="21.6293" r="3.75451" transform="rotate(180 118.643 21.6293)" fill="#F1AD9F"/>
<circle cx="147.177" cy="21.6294" r="3.75451" transform="rotate(180 147.177 21.6294)" fill="#F1AD9F"/>
<circle cx="175.711" cy="21.6293" r="3.75451" transform="rotate(180 175.711 21.6293)" fill="#F1AD9F"/>
</g>
<rect x="127" y="92" width="334" height="229" rx="11" fill="#F3A798"/>
<rect x="139" y="103" width="311" height="174" rx="11" fill="#D97662"/>
<rect x="149" y="116" width="293" height="150" rx="5" fill="#E18370"/>
<rect x="149" y="116" width="293" height="150" rx="5" fill="white"/>
<rect x="149" y="116" width="293" height="19" rx="5" fill="#E18370"/>
<rect x="149" y="116" width="293" height="19" rx="5" fill="#FFF2E9"/>
<rect x="273" y="321" width="49" height="20" fill="#D97662"/>
<rect x="178" y="164" width="53" height="91" rx="4" fill="#FFF2E9"/>
<rect x="361" y="164" width="53" height="91" rx="4" fill="#FFF2E9"/>
<rect x="177" y="148" width="237" height="8" fill="#FFF2E9"/>
<rect x="236" y="165" width="118" height="2" fill="#FFF2E9"/>
<rect x="236" y="172" width="118" height="2" fill="#FFF2E9"/>
<rect x="236" y="179" width="118" height="2" fill="#FFF2E9"/>
<rect x="236" y="186" width="118" height="2" fill="#FFF2E9"/>
<rect x="236" y="192" width="118" height="2" fill="#FFF2E9"/>
<rect x="236" y="199" width="118" height="2" fill="#FFF2E9"/>
<rect x="236" y="205" width="118" height="2" fill="#FFF2E9"/>
<rect x="237" y="212" width="118" height="2" fill="#FFF2E9"/>
<rect x="237" y="219" width="63" height="2" fill="#FFF2E9"/>
<circle cx="296" cy="304" r="9" fill="#D97662"/>
<path d="M328.5 343.243C328.828 343.334 329.161 343.42 329.5 343.5C344.7 347.1 335.167 344.829 328.5 343.243Z" fill="#F1AD9F"/>
<rect x="254" y="341" width="83" height="9" fill="#F3A798"/>
<circle cx="402" cy="125" r="4" fill="#F3A798"/>
<circle cx="416" cy="125" r="4" fill="#F3A798"/>
<circle cx="429" cy="125" r="4" fill="#F3A798"/>
<path d="M603 410.5H552.5M603 38H552.5M603 71H552.5M603 107H552.5M603 140.5H552.5M603 176.5H552.5M603 241H552.5M603 305H552.5M603 340H552.5M603 375H552.5M297 446V412L297 349.5" stroke="#F1AD9F" stroke-width="4"/>
<circle cx="296.5" cy="472.5" r="28.5" fill="#E18370"/>
<path d="M98.7 458.8C101.172 458.8 103.26 459.64 104.964 461.32C106.668 463 107.52 465.04 107.52 467.44C107.52 469.84 106.668 471.88 104.964 473.56C103.26 475.24 101.172 476.08 98.7 476.08H94.92V484H89.16V458.8H98.7ZM98.7 470.68C99.588 470.68 100.32 470.368 100.896 469.744C101.472 469.12 101.76 468.352 101.76 467.44C101.76 466.528 101.472 465.76 100.896 465.136C100.32 464.512 99.588 464.2 98.7 464.2H94.92V470.68H98.7ZM122.193 466H127.593V484H122.193V482.308C120.921 483.772 119.133 484.504 116.829 484.504C114.453 484.504 112.425 483.592 110.745 481.768C109.065 479.92 108.225 477.664 108.225 475C108.225 472.336 109.065 470.092 110.745 468.268C112.425 466.42 114.453 465.496 116.829 465.496C119.133 465.496 120.921 466.228 122.193 467.692V466ZM114.813 478.204C115.605 478.996 116.637 479.392 117.909 479.392C119.181 479.392 120.213 478.996 121.005 478.204C121.797 477.412 122.193 476.344 122.193 475C122.193 473.656 121.797 472.588 121.005 471.796C120.213 471.004 119.181 470.608 117.909 470.608C116.637 470.608 115.605 471.004 114.813 471.796C114.021 472.588 113.625 473.656 113.625 475C113.625 476.344 114.021 477.412 114.813 478.204ZM142.498 474.856C144.25 475.792 145.126 477.208 145.126 479.104C145.126 480.664 144.466 481.96 143.146 482.992C141.85 484 140.026 484.504 137.674 484.504C134.002 484.504 131.482 483.076 130.114 480.22L134.47 477.628C134.998 479.092 136.09 479.824 137.746 479.824C139.162 479.824 139.87 479.356 139.87 478.42C139.87 477.58 139.306 477.16 138.178 477.16H135.658V472.624H137.602C138.73 472.624 139.294 472.216 139.294 471.4C139.294 470.536 138.73 470.104 137.602 470.104C136.258 470.104 135.274 470.8 134.65 472.192L130.294 469.708C131.758 466.9 134.158 465.496 137.494 465.496C139.606 465.496 141.286 466.024 142.534 467.08C143.782 468.136 144.406 469.408 144.406 470.896C144.406 472.648 143.77 473.968 142.498 474.856ZM156.544 484.504C153.616 484.504 151.276 483.58 149.524 481.732C147.796 479.884 146.932 477.544 146.932 474.712C146.932 471.64 147.388 469.264 148.3 467.584C149.212 465.904 151.048 464.38 153.808 463.012C154.12 462.868 154.612 462.628 155.284 462.292C155.98 461.956 156.424 461.74 156.616 461.644C156.832 461.524 157.168 461.344 157.624 461.104C158.08 460.84 158.38 460.636 158.524 460.492C158.692 460.324 158.908 460.108 159.172 459.844C159.46 459.58 159.676 459.316 159.82 459.052C159.988 458.764 160.144 458.44 160.288 458.08L164.752 460.636C164.416 462.052 163.72 463.18 162.664 464.02C161.632 464.836 160.072 465.64 157.984 466.432C156.496 466.984 155.416 467.536 154.744 468.088C154.096 468.616 153.628 469.228 153.34 469.924C154.612 468.796 156.256 468.232 158.272 468.232C160.12 468.232 161.824 468.952 163.384 470.392C164.944 471.808 165.724 473.704 165.724 476.08C165.724 478.552 164.884 480.58 163.204 482.164C161.548 483.724 159.328 484.504 156.544 484.504ZM153.7 478.6C154.468 479.296 155.404 479.644 156.508 479.644C157.612 479.644 158.524 479.308 159.244 478.636C159.964 477.964 160.324 477.112 160.324 476.08C160.324 475.024 159.952 474.16 159.208 473.488C158.464 472.792 157.528 472.444 156.4 472.444C155.392 472.444 154.504 472.768 153.736 473.416C152.968 474.04 152.584 474.88 152.584 475.936C152.584 477.016 152.956 477.904 153.7 478.6ZM173.081 477.16C173.705 478.84 175.145 479.68 177.401 479.68C178.865 479.68 180.017 479.224 180.857 478.312L185.177 480.796C183.401 483.268 180.785 484.504 177.329 484.504C174.305 484.504 171.881 483.604 170.057 481.804C168.257 480.004 167.357 477.736 167.357 475C167.357 472.288 168.245 470.032 170.021 468.232C171.821 466.408 174.125 465.496 176.933 465.496C179.549 465.496 181.721 466.408 183.449 468.232C185.201 470.032 186.077 472.288 186.077 475C186.077 475.768 186.005 476.488 185.861 477.16H173.081ZM172.973 473.128H180.713C180.185 471.232 178.913 470.284 176.897 470.284C174.809 470.284 173.501 471.232 172.973 473.128ZM199.904 465.496C202.28 465.496 204.308 466.42 205.988 468.268C207.668 470.092 208.508 472.336 208.508 475C208.508 477.664 207.668 479.92 205.988 481.768C204.308 483.592 202.28 484.504 199.904 484.504C197.6 484.504 195.812 483.772 194.54 482.308V491.2H189.14V466H194.54V467.692C195.812 466.228 197.6 465.496 199.904 465.496ZM195.728 478.204C196.544 478.996 197.576 479.392 198.824 479.392C200.072 479.392 201.092 478.996 201.884 478.204C202.7 477.412 203.108 476.344 203.108 475C203.108 473.656 202.7 472.588 201.884 471.796C201.092 471.004 200.072 470.608 198.824 470.608C197.576 470.608 196.544 471.004 195.728 471.796C194.936 472.588 194.54 473.656 194.54 475C194.54 476.344 194.936 477.412 195.728 478.204ZM218.518 463.588C217.99 464.116 217.354 464.38 216.61 464.38C215.866 464.38 215.23 464.116 214.702 463.588C214.174 463.06 213.91 462.424 213.91 461.68C213.91 460.936 214.174 460.3 214.702 459.772C215.23 459.244 215.866 458.98 216.61 458.98C217.354 458.98 217.99 459.244 218.518 459.772C219.046 460.3 219.31 460.936 219.31 461.68C219.31 462.424 219.046 463.06 218.518 463.588ZM225.358 463.588C224.83 464.116 224.194 464.38 223.45 464.38C222.706 464.38 222.07 464.116 221.542 463.588C221.014 463.06 220.75 462.424 220.75 461.68C220.75 460.936 221.014 460.3 221.542 459.772C222.07 459.244 222.706 458.98 223.45 458.98C224.194 458.98 224.83 459.244 225.358 459.772C225.886 460.3 226.15 460.936 226.15 461.68C226.15 462.424 225.886 463.06 225.358 463.588ZM216.394 477.16C217.018 478.84 218.458 479.68 220.714 479.68C222.178 479.68 223.33 479.224 224.17 478.312L228.49 480.796C226.714 483.268 224.098 484.504 220.642 484.504C217.618 484.504 215.194 483.604 213.37 481.804C211.57 480.004 210.67 477.736 210.67 475C210.67 472.288 211.558 470.032 213.334 468.232C215.134 466.408 217.438 465.496 220.246 465.496C222.862 465.496 225.034 466.408 226.762 468.232C228.514 470.032 229.39 472.288 229.39 475C229.39 475.768 229.318 476.488 229.174 477.16H216.394ZM216.286 473.128H224.026C223.498 471.232 222.226 470.284 220.21 470.284C218.122 470.284 216.814 471.232 216.286 473.128ZM251.533 466V484H246.349V474.712L242.317 480.976H241.669L237.637 474.712V484H232.453V466H237.637L241.993 472.804L246.349 466H251.533ZM362.4 466V484H357V471.04H350.88V484H345.48V466H362.4ZM377.127 465.496C379.503 465.496 381.531 466.42 383.211 468.268C384.891 470.092 385.731 472.336 385.731 475C385.731 477.664 384.891 479.92 383.211 481.768C381.531 483.592 379.503 484.504 377.127 484.504C374.823 484.504 373.035 483.772 371.763 482.308V491.2H366.363V466H371.763V467.692C373.035 466.228 374.823 465.496 377.127 465.496ZM372.951 478.204C373.767 478.996 374.799 479.392 376.047 479.392C377.295 479.392 378.315 478.996 379.107 478.204C379.923 477.412 380.331 476.344 380.331 475C380.331 473.656 379.923 472.588 379.107 471.796C378.315 471.004 377.295 470.608 376.047 470.608C374.799 470.608 373.767 471.004 372.951 471.796C372.159 472.588 371.763 473.656 371.763 475C371.763 476.344 372.159 477.412 372.951 478.204ZM404.201 481.768C402.353 483.592 400.097 484.504 397.433 484.504C394.769 484.504 392.513 483.592 390.665 481.768C388.817 479.92 387.893 477.664 387.893 475C387.893 472.336 388.817 470.092 390.665 468.268C392.513 466.42 394.769 465.496 397.433 465.496C400.097 465.496 402.353 466.42 404.201 468.268C406.049 470.092 406.973 472.336 406.973 475C406.973 477.664 406.049 479.92 404.201 481.768ZM394.481 478.06C395.273 478.852 396.257 479.248 397.433 479.248C398.609 479.248 399.593 478.852 400.385 478.06C401.177 477.268 401.573 476.248 401.573 475C401.573 473.752 401.177 472.732 400.385 471.94C399.593 471.148 398.609 470.752 397.433 470.752C396.257 470.752 395.273 471.148 394.481 471.94C393.689 472.732 393.293 473.752 393.293 475C393.293 476.248 393.689 477.268 394.481 478.06ZM414.851 477.16C415.475 478.84 416.915 479.68 419.171 479.68C420.635 479.68 421.787 479.224 422.627 478.312L426.947 480.796C425.171 483.268 422.555 484.504 419.099 484.504C416.075 484.504 413.651 483.604 411.827 481.804C410.027 480.004 409.127 477.736 409.127 475C409.127 472.288 410.015 470.032 411.791 468.232C413.591 466.408 415.895 465.496 418.703 465.496C421.319 465.496 423.491 466.408 425.219 468.232C426.971 470.032 427.847 472.288 427.847 475C427.847 475.768 427.775 476.488 427.631 477.16H414.851ZM414.743 473.128H422.483C421.955 471.232 420.683 470.284 418.667 470.284C416.579 470.284 415.271 471.232 414.743 473.128ZM448.19 484H442.07L436.31 476.044V484H430.91V466H436.31V473.884L441.71 466H448.01L441.458 475L448.19 484ZM464.755 466V471.184H459.391V484H453.991V471.184H448.555V466H464.755ZM481.79 481.768C479.942 483.592 477.686 484.504 475.022 484.504C472.358 484.504 470.102 483.592 468.254 481.768C466.406 479.92 465.482 477.664 465.482 475C465.482 472.336 466.406 470.092 468.254 468.268C470.102 466.42 472.358 465.496 475.022 465.496C477.686 465.496 479.942 466.42 481.79 468.268C483.638 470.092 484.562 472.336 484.562 475C484.562 477.664 483.638 479.92 481.79 481.768ZM472.07 478.06C472.862 478.852 473.846 479.248 475.022 479.248C476.198 479.248 477.182 478.852 477.974 478.06C478.766 477.268 479.162 476.248 479.162 475C479.162 473.752 478.766 472.732 477.974 471.94C477.182 471.148 476.198 470.752 475.022 470.752C473.846 470.752 472.862 471.148 472.07 471.94C471.278 472.732 470.882 473.752 470.882 475C470.882 476.248 471.278 477.268 472.07 478.06ZM501.045 474.784C502.653 475.648 503.457 477.004 503.457 478.852C503.457 480.388 502.917 481.636 501.837 482.596C500.781 483.532 499.281 484 497.337 484H487.617V466H496.617C498.561 466 500.061 466.48 501.117 467.44C502.197 468.376 502.737 469.612 502.737 471.148C502.737 472.732 502.173 473.944 501.045 474.784ZM496.041 470.32H492.657V472.84H496.041C497.097 472.84 497.625 472.432 497.625 471.616C497.625 470.752 497.097 470.32 496.041 470.32ZM496.617 479.536C497.673 479.536 498.201 479.092 498.201 478.204C498.201 477.364 497.673 476.944 496.617 476.944H492.657V479.536H496.617Z" fill="#F3A798"/>
<path d="M296.11 467.116C299.269 467.116 301.891 468.067 303.976 469.968C306.092 471.839 307.15 474.476 307.15 477.88C307.15 481.253 306.015 483.891 303.746 485.792C301.477 487.693 298.701 488.644 295.42 488.644C292.752 488.644 290.406 488.077 288.382 486.942C286.358 485.777 284.871 484.044 283.92 481.744L290.268 478.064C291.065 480.333 292.783 481.468 295.42 481.468C296.861 481.468 297.95 481.131 298.686 480.456C299.422 479.781 299.79 478.923 299.79 477.88C299.79 476.837 299.437 475.979 298.732 475.304C298.027 474.629 296.999 474.292 295.65 474.292H285.576L286.91 455.8H305.54V462.7H293.81L293.488 467.116H296.11Z" fill="white"/>
</svg>
