<svg width="95" height="94" viewBox="0 0 95 94" fill="none" xmlns="http://www.w3.org/2000/svg">
<path d="M90.8801 12.2656C90.8801 14.4532 90.8801 16.5446 90.8801 18.6413C90.8801 30.4621 90.8801 42.2829 90.8801 54.1037C90.8801 61.1427 90.8801 68.1763 90.8854 75.2153C90.8854 76.8787 90.1207 77.665 88.4575 77.665C75.9168 77.665 63.3707 77.665 50.83 77.665C50.6 77.665 50.3647 77.665 50.0492 77.665C50.0492 78.5529 50.108 79.4141 50.0331 80.2592C49.9315 81.4199 50.1668 82.1633 51.3327 82.8426C53.8622 84.3189 54.75 87.4372 53.6964 90.0902C52.6055 92.8341 49.8032 94.4067 46.8833 93.9039C44.1345 93.4332 41.9739 90.9514 41.8402 88.1058C41.7279 85.747 43.1291 83.431 45.3591 82.388C45.8244 82.1687 45.9688 81.928 45.9527 81.4252C45.9099 80.195 45.9367 78.9648 45.9367 77.665C45.5891 77.665 45.3056 77.665 45.0169 77.665C32.5136 77.665 20.0103 77.665 7.50698 77.665C5.84379 77.665 5.0844 76.9376 5.0844 75.2741C5.06835 69.8237 5.0737 64.3733 5.0737 58.9283C5.0737 51.8732 5.07905 44.8129 5.07905 37.7578C5.07905 30.5637 5.07905 23.3696 5.07905 16.1755C5.07905 14.9025 5.07905 13.6295 5.07905 12.2709C4.42126 12.2709 3.81696 12.2763 3.218 12.2709C1.80081 12.2549 0.993286 11.4526 0.993286 10.0405C0.998634 7.38751 0.998634 4.73987 1.00398 2.09223C1.00933 0.813869 1.8329 0.000855803 3.10034 0.000855803C21.6414 0.000855803 40.177 0.000855803 58.7181 0.000855803C69.8095 0.000855803 80.901 0.000855803 91.9924 0.000855803C92.324 0.000855803 92.6609 -0.00449297 92.9925 0.0115533C94.0995 0.0596923 94.9712 0.899449 94.9819 2.01199C95.0033 4.75591 95.0086 7.49983 94.9819 10.2438C94.9712 11.4205 94.0728 12.2495 92.8909 12.2656C92.2438 12.2763 91.602 12.2656 90.8801 12.2656ZM86.7729 12.3084C60.9 12.3084 35.0645 12.3084 9.2076 12.3084C9.2076 32.73 9.2076 53.1088 9.2076 73.509C35.0859 73.509 60.9267 73.509 86.7729 73.509C86.7729 53.0874 86.7729 32.7086 86.7729 12.3084ZM90.8533 4.14615C62.253 4.14615 33.7115 4.14615 5.14857 4.14615C5.14857 5.49404 5.14857 6.7938 5.14857 8.10959C33.7436 8.10959 62.2958 8.10959 90.8533 8.10959C90.8533 6.7724 90.8533 5.48335 90.8533 4.14615ZM47.9689 89.8977C49.1347 89.8923 50.0331 89.0098 50.0331 87.8758C50.0331 86.7258 49.108 85.8326 47.9154 85.8379C46.8298 85.8379 45.9474 86.7686 45.9581 87.8972C45.9688 89.0205 46.8512 89.903 47.9689 89.8977Z" fill="black"/>
<path d="M31.6796 40.8548C33.1983 40.8548 34.6637 40.8548 36.1343 40.8548C37.2895 40.8548 38.4446 40.8495 39.6051 40.8602C41.049 40.8709 41.8672 41.7106 41.8458 43.1388C41.7549 49.5412 36.7761 54.7028 30.241 55.1735C24.2139 55.6068 18.4864 51.0122 17.497 44.9413C16.2884 37.5439 21.9358 30.767 29.4067 30.6494C30.7383 30.628 31.6368 31.4945 31.6421 32.8263C31.6475 35.2975 31.6475 37.7686 31.6528 40.2344C31.6528 40.4269 31.6689 40.6195 31.6796 40.8548ZM37.3376 44.9627C34.8294 44.9627 32.3641 44.9627 29.8987 44.9627C28.3585 44.9627 27.5778 44.1925 27.5671 42.6574C27.5564 40.3841 27.5617 38.1109 27.5564 35.8377C27.5564 35.6344 27.535 35.4258 27.5243 35.2172C24.2407 35.6237 21.417 39.3037 21.4545 43.0425C21.4972 47.2306 24.6525 50.6324 28.8826 51.0496C32.7331 51.4347 36.5247 48.7389 37.3376 44.9627Z" fill="black"/>
<path d="M33.685 31.6121C33.685 30.0075 33.6796 28.3975 33.685 26.7929C33.6903 25.2364 34.5353 24.4394 36.0755 24.5143C42.3057 24.8352 47.0814 29.2159 47.9103 35.383C47.9691 35.8109 47.9691 36.2442 47.9691 36.6721C47.9745 37.9558 47.1402 38.8223 45.8514 38.833C43.4234 38.849 40.9902 38.8383 38.5622 38.8437C37.7761 38.8437 36.99 38.7902 36.2145 38.8544C34.808 38.972 33.5459 38.1269 33.6743 36.3137C33.7331 35.5328 33.6903 34.7465 33.6903 33.9602C33.6903 33.174 33.6903 32.393 33.6903 31.6068C33.6903 31.6121 33.6903 31.6121 33.685 31.6121ZM37.8242 34.7251C38.8189 34.7251 39.7548 34.7251 40.6907 34.7251C41.6105 34.7251 42.5303 34.7251 43.4716 34.7251C42.8084 31.9544 40.1024 29.2854 37.8242 29.0982C37.8242 30.9489 37.8242 32.7995 37.8242 34.7251Z" fill="black"/>
<path d="M65.2106 34.7572C61.4511 34.7572 57.6862 34.7572 53.9266 34.7572C52.702 34.7572 51.7661 33.8693 51.7607 32.6873C51.7607 31.5426 52.6806 30.644 53.8945 30.644C61.3227 30.6387 68.7455 30.6387 76.1737 30.644C76.5588 30.644 76.9652 30.6761 77.3289 30.7991C78.2594 31.104 78.7835 32.0508 78.6391 33.0403C78.4947 33.9924 77.6818 34.7305 76.6764 34.7358C72.858 34.7519 69.0343 34.7412 65.216 34.7412C65.2106 34.7412 65.2106 34.7465 65.2106 34.7572Z" fill="black"/>
<path d="M65.1731 51.0817C68.954 51.0817 72.735 51.071 76.5159 51.087C78.1417 51.0924 79.1417 52.6221 78.4518 54.0182C78.0347 54.8686 77.302 55.1895 76.3822 55.1895C72.4248 55.1842 68.4674 55.1895 64.51 55.1895C60.9643 55.1895 57.4187 55.1949 53.8731 55.1895C52.7768 55.1895 51.9478 54.4675 51.7981 53.4137C51.6537 52.36 52.2741 51.4133 53.3062 51.1459C53.5308 51.087 53.7715 51.0817 54.0014 51.0817C57.7289 51.0817 61.451 51.0817 65.1731 51.0817Z" fill="black"/>
<path d="M65.1518 44.968C61.4083 44.968 57.6702 44.968 53.9267 44.968C52.6753 44.968 51.7608 44.0908 51.7661 42.9034C51.7715 41.7374 52.6646 40.8602 53.8892 40.8602C61.3923 40.8548 68.8953 40.8495 76.3984 40.8602C78.0455 40.8602 79.0402 42.1974 78.5215 43.6469C78.2274 44.4599 77.484 44.9627 76.4946 44.9627C72.7137 44.968 68.9328 44.9627 65.1518 44.968C65.1518 44.9627 65.1518 44.9627 65.1518 44.968Z" fill="black"/>
</svg>
