<svg width="90" height="91" viewBox="0 0 90 91" fill="none" xmlns="http://www.w3.org/2000/svg">
<path d="M89.0984 34.9083C88.5753 34.4612 88.0466 34.0142 87.5291 33.5559L84.0842 30.5271C82.2533 28.9176 80.4223 27.3082 78.5858 25.7043C78.5079 25.6373 78.4912 25.6093 78.4912 25.4808C78.4968 21.569 78.4968 17.6627 78.4968 13.7509V10.9009C78.4968 10.5208 78.1907 10.2135 77.8123 10.2135H74.5399C70.2102 10.2135 65.875 10.2135 61.5453 10.2191C61.267 10.2191 60.9999 10.1185 60.794 9.92848L59.2468 8.53699C57.4215 6.89402 55.5349 5.18958 53.6371 3.55779C52.0288 2.17189 50.0587 1.24422 47.7715 0.785982C43.6866 -0.0299138 39.9246 0.836277 36.591 3.35661C35.7006 4.02721 34.8714 4.79281 34.07 5.53606C33.725 5.86018 33.3744 6.17872 33.0237 6.49166L31.7716 7.60933C30.8144 8.46434 29.8572 9.32495 28.8944 10.1632C28.8721 10.18 28.7942 10.2023 28.7163 10.2023C24.0193 10.2079 19.3223 10.2079 14.6253 10.2079H12.1599C11.7815 10.2079 11.4754 10.5153 11.4754 10.8953V13.7118C11.4754 17.6348 11.4754 21.5578 11.481 25.4864C11.481 25.5926 11.4754 25.6205 11.3752 25.7043C9.7001 27.1741 8.02498 28.6438 6.34986 30.1135C4.3631 31.8571 2.37633 33.6006 0.389562 35.3386C0 35.6963 0 36.1042 0 36.3724V69.7459C0 76.2116 0 82.6773 0 89.143C0 89.3498 0.0166955 89.6851 0.0445214 89.8919C0.0834776 90.2383 0.372867 90.501 0.723473 90.501H89.3155C89.6939 90.501 90 90.1936 90 89.8136V35.998C90 35.7968 89.9109 35.6068 89.7607 35.4783L89.0984 34.9083ZM34.9827 10.3532C35.183 10.1632 35.3889 9.97319 35.5893 9.78878C36.6634 8.78847 37.7764 7.74904 38.9006 6.77108C40.8539 5.07223 43.1524 4.3178 45.7402 4.52457C47.7214 4.68105 49.5078 5.46341 51.0549 6.84932L51.8619 7.5758C52.4518 8.10669 53.0417 8.63199 53.6316 9.16288C54.0991 9.58201 53.8041 10.3588 53.1808 10.3588H34.9827V10.3532ZM78.5246 40.3849V32.5444C78.5246 31.9577 79.2147 31.6391 79.6543 32.0303L84.3235 36.121C84.6463 36.4004 84.6352 36.9033 84.3013 37.1716L79.6321 40.9213C79.1869 41.279 78.5246 40.9605 78.5246 40.3849ZM4.04032 81.8391V42.352C4.04032 41.7764 4.70814 41.4578 5.15335 41.8211L26.8742 59.4969C27.1914 59.754 27.2137 60.2234 26.9299 60.514L5.20344 82.3253C4.77492 82.7556 4.04032 82.4538 4.04032 81.8391ZM74.5232 44.9058C74.5232 45.0288 74.5121 45.0399 74.4342 45.107C66.6597 51.3995 58.8851 57.6919 51.1217 64.0011C49.0681 65.672 46.8755 66.4153 44.4212 66.2644C42.5569 66.1526 40.8651 65.4988 39.3959 64.3141C35.2387 60.9667 31.0871 57.6193 26.9299 54.2774L15.5324 45.0958C15.4712 45.0455 15.4601 45.0288 15.4601 45.0288C15.4601 45.0288 15.4545 45.012 15.4545 44.9729C15.4601 35.9533 15.4601 26.9338 15.4601 17.9142V14.9189C15.4601 14.5389 15.7661 14.2315 16.1446 14.2315H73.8387C74.2172 14.2315 74.5232 14.5389 74.5232 14.9189V17.8304C74.5177 26.8555 74.5177 35.8807 74.5232 44.9058ZM30.9424 62.6767C31.4822 63.1238 32.022 63.5597 32.5563 64.0011C32.9959 64.3588 33.43 64.7164 33.8641 65.0797C34.8769 65.9179 35.9176 66.7841 36.9861 67.5944C38.9284 69.0753 41.0877 69.9639 43.4028 70.2321C47.0647 70.6568 50.4038 69.69 53.3255 67.3541C54.8337 66.147 56.3474 64.8953 57.7999 63.6938C58.8462 63.7441 59.4861 63.7776 60.538 63.8279L81.7357 85.1138C82.1642 85.5441 81.8637 86.2818 81.2515 86.2818H8.50915C7.90255 86.2818 7.59646 85.5441 8.03055 85.1082L30.7031 62.4699L30.9424 62.6767ZM63.1425 59.469L84.8411 41.8099C85.2863 41.4466 85.9541 41.7652 85.9541 42.3408V81.7944C85.9541 82.4035 85.2195 82.7108 84.791 82.2805L63.0924 60.4861C62.803 60.1955 62.8253 59.7261 63.1425 59.469ZM5.65422 36.121L10.329 32.0247C10.7686 31.6391 11.4587 31.9521 11.4587 32.5389V40.396C11.4587 40.9716 10.7964 41.2902 10.3512 40.9325L5.67648 37.1772C5.34813 36.9033 5.337 36.4004 5.65422 36.121Z" fill="black"/>
<path d="M68.4685 20.3118H21.5095V24.2795H68.4685V20.3118Z" fill="black"/>
<path d="M68.4683 30.3763H21.5205V34.3441H68.4683V30.3763Z" fill="black"/>
<path d="M59.8756 40.4576H30.1187V44.403H59.8756V40.4576Z" fill="black"/>
<path d="M41.2267 76.4186H37.281V80.3639H41.2267V76.4186Z" fill="black"/>
<path d="M46.959 76.413H43.0244V80.3751H46.959V76.413Z" fill="black"/>
<path d="M52.6855 76.4073H48.7454V80.3695H52.6855V76.4073Z" fill="black"/>
</svg>
