<svg width="274" height="143" viewBox="0 0 274 143" fill="none" xmlns="http://www.w3.org/2000/svg">
<path d="M18.7879 99H21.5879V113H18.3879V102.38L15.9079 103.06L15.1279 100.32L18.7879 99ZM23.4343 113V110.68L28.1343 105.8C29.081 104.827 29.5543 104 29.5543 103.32C29.5543 102.88 29.421 102.527 29.1543 102.26C28.8876 101.98 28.521 101.84 28.0543 101.84C27.121 101.84 26.4343 102.347 25.9943 103.36L23.2943 101.78C23.721 100.78 24.361 100.02 25.2143 99.5C26.0676 98.98 27.001 98.72 28.0143 98.72C29.321 98.72 30.4343 99.1267 31.3543 99.94C32.2876 100.74 32.7543 101.82 32.7543 103.18C32.7543 104.66 32.0276 106.127 30.5743 107.58L28.2543 109.92H32.9543V113H23.4343ZM37.7984 105.92C37.425 106.293 36.9784 106.48 36.4584 106.48C35.9384 106.48 35.4917 106.293 35.1184 105.92C34.745 105.547 34.5584 105.1 34.5584 104.58C34.5584 104.06 34.745 103.613 35.1184 103.24C35.4917 102.867 35.9384 102.68 36.4584 102.68C36.9784 102.68 37.425 102.867 37.7984 103.24C38.1717 103.613 38.3584 104.06 38.3584 104.58C38.3584 105.1 38.1717 105.547 37.7984 105.92ZM37.7984 112.72C37.425 113.093 36.9784 113.28 36.4584 113.28C35.9384 113.28 35.4917 113.093 35.1184 112.72C34.745 112.347 34.5584 111.9 34.5584 111.38C34.5584 110.86 34.745 110.413 35.1184 110.04C35.4917 109.667 35.9384 109.48 36.4584 109.48C36.9784 109.48 37.425 109.667 37.7984 110.04C38.1717 110.413 38.3584 110.86 38.3584 111.38C38.3584 111.9 38.1717 112.347 37.7984 112.72ZM49.7438 111.3C48.7438 112.62 47.3505 113.28 45.5638 113.28C43.7772 113.28 42.3772 112.62 41.3638 111.3C40.3638 109.967 39.8638 108.2 39.8638 106C39.8638 103.8 40.3638 102.04 41.3638 100.72C42.3772 99.3867 43.7772 98.72 45.5638 98.72C47.3505 98.72 48.7438 99.3867 49.7438 100.72C50.7572 102.04 51.2638 103.8 51.2638 106C51.2638 108.2 50.7572 109.967 49.7438 111.3ZM43.0638 106C43.0638 108.773 43.8972 110.16 45.5638 110.16C47.2305 110.16 48.0638 108.773 48.0638 106C48.0638 103.227 47.2305 101.84 45.5638 101.84C43.8972 101.84 43.0638 103.227 43.0638 106ZM62.3415 111.3C61.3415 112.62 59.9482 113.28 58.1615 113.28C56.3748 113.28 54.9748 112.62 53.9615 111.3C52.9615 109.967 52.4615 108.2 52.4615 106C52.4615 103.8 52.9615 102.04 53.9615 100.72C54.9748 99.3867 56.3748 98.72 58.1615 98.72C59.9482 98.72 61.3415 99.3867 62.3415 100.72C63.3548 102.04 63.8615 103.8 63.8615 106C63.8615 108.2 63.3548 109.967 62.3415 111.3ZM55.6615 106C55.6615 108.773 56.4948 110.16 58.1615 110.16C59.8282 110.16 60.6615 108.773 60.6615 106C60.6615 103.227 59.8282 101.84 58.1615 101.84C56.4948 101.84 55.6615 103.227 55.6615 106Z" fill="#222222"/>
<path d="M218.817 100H221.617V114H218.417V103.38L215.937 104.06L215.157 101.32L218.817 100ZM228.724 104.92C230.097 104.92 231.237 105.333 232.144 106.16C233.064 106.973 233.524 108.12 233.524 109.6C233.524 111.067 233.03 112.213 232.044 113.04C231.057 113.867 229.85 114.28 228.424 114.28C227.264 114.28 226.244 114.033 225.364 113.54C224.484 113.033 223.837 112.28 223.424 111.28L226.184 109.68C226.53 110.667 227.277 111.16 228.424 111.16C229.05 111.16 229.524 111.013 229.844 110.72C230.164 110.427 230.324 110.053 230.324 109.6C230.324 109.147 230.17 108.773 229.864 108.48C229.557 108.187 229.11 108.04 228.524 108.04H224.144L224.724 100H232.824V103H227.724L227.584 104.92H228.724ZM237.769 106.92C237.396 107.293 236.949 107.48 236.429 107.48C235.909 107.48 235.462 107.293 235.089 106.92C234.716 106.547 234.529 106.1 234.529 105.58C234.529 105.06 234.716 104.613 235.089 104.24C235.462 103.867 235.909 103.68 236.429 103.68C236.949 103.68 237.396 103.867 237.769 104.24C238.142 104.613 238.329 105.06 238.329 105.58C238.329 106.1 238.142 106.547 237.769 106.92ZM237.769 113.72C237.396 114.093 236.949 114.28 236.429 114.28C235.909 114.28 235.462 114.093 235.089 113.72C234.716 113.347 234.529 112.9 234.529 112.38C234.529 111.86 234.716 111.413 235.089 111.04C235.462 110.667 235.909 110.48 236.429 110.48C236.949 110.48 237.396 110.667 237.769 111.04C238.142 111.413 238.329 111.86 238.329 112.38C238.329 112.9 238.142 113.347 237.769 113.72ZM249.715 112.3C248.715 113.62 247.321 114.28 245.535 114.28C243.748 114.28 242.348 113.62 241.335 112.3C240.335 110.967 239.835 109.2 239.835 107C239.835 104.8 240.335 103.04 241.335 101.72C242.348 100.387 243.748 99.72 245.535 99.72C247.321 99.72 248.715 100.387 249.715 101.72C250.728 103.04 251.235 104.8 251.235 107C251.235 109.2 250.728 110.967 249.715 112.3ZM243.035 107C243.035 109.773 243.868 111.16 245.535 111.16C247.201 111.16 248.035 109.773 248.035 107C248.035 104.227 247.201 102.84 245.535 102.84C243.868 102.84 243.035 104.227 243.035 107ZM262.312 112.3C261.312 113.62 259.919 114.28 258.132 114.28C256.346 114.28 254.946 113.62 253.932 112.3C252.932 110.967 252.432 109.2 252.432 107C252.432 104.8 252.932 103.04 253.932 101.72C254.946 100.387 256.346 99.72 258.132 99.72C259.919 99.72 261.312 100.387 262.312 101.72C263.326 103.04 263.832 104.8 263.832 107C263.832 109.2 263.326 110.967 262.312 112.3ZM255.632 107C255.632 109.773 256.466 111.16 258.132 111.16C259.799 111.16 260.632 109.773 260.632 107C260.632 104.227 259.799 102.84 258.132 102.84C256.466 102.84 255.632 104.227 255.632 107Z" fill="#222222"/>
<path d="M95.3684 15.224C94.1524 15.224 93.1391 14.8187 92.3284 14.008C91.5284 13.1973 91.1284 12.1947 91.1284 11C91.1284 9.80533 91.5284 8.80267 92.3284 7.992C93.1391 7.18133 94.1524 6.776 95.3684 6.776C96.1364 6.776 96.8404 6.96267 97.4804 7.336C98.1311 7.70933 98.6324 8.20533 98.9844 8.824L96.8884 10.04C96.6004 9.44267 96.0831 9.144 95.3364 9.144C94.8138 9.144 94.3818 9.32 94.0404 9.672C93.6991 10.0133 93.5284 10.456 93.5284 11C93.5284 11.544 93.6991 11.992 94.0404 12.344C94.3818 12.6853 94.8138 12.856 95.3364 12.856C96.0938 12.856 96.6111 12.5573 96.8884 11.96L98.9844 13.16C98.6324 13.7893 98.1364 14.2907 97.4964 14.664C96.8564 15.0373 96.1471 15.224 95.3684 15.224ZM103.666 15.224C102.365 15.224 101.325 14.8133 100.546 13.992C99.7781 13.1707 99.3941 12.1307 99.3941 10.872C99.3941 9.50667 99.5967 8.45067 100.002 7.704C100.407 6.95733 101.223 6.28 102.45 5.672C102.589 5.608 102.807 5.50133 103.106 5.352C103.415 5.20267 103.613 5.10667 103.698 5.064C103.794 5.01067 103.943 4.93067 104.146 4.824C104.349 4.70667 104.482 4.616 104.546 4.552C104.621 4.47733 104.717 4.38133 104.834 4.264C104.962 4.14667 105.058 4.02933 105.122 3.912C105.197 3.784 105.266 3.64 105.33 3.48L107.314 4.616C107.165 5.24533 106.855 5.74667 106.386 6.12C105.927 6.48267 105.234 6.84 104.306 7.192C103.645 7.43733 103.165 7.68267 102.866 7.928C102.578 8.16267 102.37 8.43467 102.242 8.744C102.807 8.24267 103.538 7.992 104.434 7.992C105.255 7.992 106.013 8.312 106.706 8.952C107.399 9.58133 107.746 10.424 107.746 11.48C107.746 12.5787 107.373 13.48 106.626 14.184C105.89 14.8773 104.903 15.224 103.666 15.224ZM102.402 12.6C102.743 12.9093 103.159 13.064 103.65 13.064C104.141 13.064 104.546 12.9147 104.866 12.616C105.186 12.3173 105.346 11.9387 105.346 11.48C105.346 11.0107 105.181 10.6267 104.85 10.328C104.519 10.0187 104.103 9.864 103.602 9.864C103.154 9.864 102.759 10.008 102.418 10.296C102.077 10.5733 101.906 10.9467 101.906 11.416C101.906 11.896 102.071 12.2907 102.402 12.6ZM115.72 14.008C114.899 14.8187 113.896 15.224 112.712 15.224C111.528 15.224 110.526 14.8187 109.704 14.008C108.883 13.1867 108.472 12.184 108.472 11C108.472 9.816 108.883 8.81867 109.704 8.008C110.526 7.18667 111.528 6.776 112.712 6.776C113.896 6.776 114.899 7.18667 115.72 8.008C116.542 8.81867 116.952 9.816 116.952 11C116.952 12.184 116.542 13.1867 115.72 14.008ZM111.4 12.36C111.752 12.712 112.19 12.888 112.712 12.888C113.235 12.888 113.672 12.712 114.024 12.36C114.376 12.008 114.552 11.5547 114.552 11C114.552 10.4453 114.376 9.992 114.024 9.64C113.672 9.288 113.235 9.112 112.712 9.112C112.19 9.112 111.752 9.288 111.4 9.64C111.048 9.992 110.872 10.4453 110.872 11C110.872 11.5547 111.048 12.008 111.4 12.36ZM123.094 6.776C124.15 6.776 125.051 7.18667 125.798 8.008C126.544 8.81867 126.918 9.816 126.918 11C126.918 12.184 126.544 13.1867 125.798 14.008C125.051 14.8187 124.15 15.224 123.094 15.224C122.07 15.224 121.275 14.8987 120.71 14.248V18.2H118.31V7H120.71V7.752C121.275 7.10133 122.07 6.776 123.094 6.776ZM121.238 12.424C121.6 12.776 122.059 12.952 122.614 12.952C123.168 12.952 123.622 12.776 123.974 12.424C124.336 12.072 124.518 11.5973 124.518 11C124.518 10.4027 124.336 9.928 123.974 9.576C123.622 9.224 123.168 9.048 122.614 9.048C122.059 9.048 121.6 9.224 121.238 9.576C120.886 9.928 120.71 10.4027 120.71 11C120.71 11.5973 120.886 12.072 121.238 12.424ZM137.878 7V9.304H134.678V15H132.278V7H137.878ZM145.455 14.008C144.633 14.8187 143.631 15.224 142.447 15.224C141.263 15.224 140.26 14.8187 139.439 14.008C138.617 13.1867 138.207 12.184 138.207 11C138.207 9.816 138.617 8.81867 139.439 8.008C140.26 7.18667 141.263 6.776 142.447 6.776C143.631 6.776 144.633 7.18667 145.455 8.008C146.276 8.81867 146.687 9.816 146.687 11C146.687 12.184 146.276 13.1867 145.455 14.008ZM141.135 12.36C141.487 12.712 141.924 12.888 142.447 12.888C142.969 12.888 143.407 12.712 143.759 12.36C144.111 12.008 144.287 11.5547 144.287 11C144.287 10.4453 144.111 9.992 143.759 9.64C143.407 9.288 142.969 9.112 142.447 9.112C141.924 9.112 141.487 9.288 141.135 9.64C140.783 9.992 140.607 10.4453 140.607 11C140.607 11.5547 140.783 12.008 141.135 12.36ZM151.884 15.224C150.668 15.224 149.655 14.8187 148.844 14.008C148.044 13.1973 147.644 12.1947 147.644 11C147.644 9.80533 148.044 8.80267 148.844 7.992C149.655 7.18133 150.668 6.776 151.884 6.776C152.652 6.776 153.356 6.96267 153.996 7.336C154.647 7.70933 155.148 8.20533 155.5 8.824L153.404 10.04C153.116 9.44267 152.599 9.144 151.852 9.144C151.329 9.144 150.897 9.32 150.556 9.672C150.215 10.0133 150.044 10.456 150.044 11C150.044 11.544 150.215 11.992 150.556 12.344C150.897 12.6853 151.329 12.856 151.852 12.856C152.609 12.856 153.127 12.5573 153.404 11.96L155.5 13.16C155.148 13.7893 154.652 14.2907 154.012 14.664C153.372 15.0373 152.663 15.224 151.884 15.224ZM162.946 7V9.304H160.562V15H158.162V9.304H155.746V7H162.946ZM165.813 11.96C166.09 12.7067 166.73 13.08 167.733 13.08C168.384 13.08 168.896 12.8773 169.269 12.472L171.189 13.576C170.4 14.6747 169.237 15.224 167.701 15.224C166.357 15.224 165.28 14.824 164.469 14.024C163.669 13.224 163.269 12.216 163.269 11C163.269 9.79467 163.664 8.792 164.453 7.992C165.253 7.18133 166.277 6.776 167.525 6.776C168.688 6.776 169.653 7.18133 170.421 7.992C171.2 8.792 171.589 9.79467 171.589 11C171.589 11.3413 171.557 11.6613 171.493 11.96H165.813ZM165.765 10.168H169.205C168.97 9.32533 168.405 8.904 167.509 8.904C166.581 8.904 166 9.32533 165.765 10.168ZM174.31 6.056V3.976H179.11V6.056H174.31ZM178.71 7H180.47V15H178.134V11L174.71 15H172.95V7H175.286V11L178.71 7Z" fill="#3E3E3E"/>
<path d="M214.594 19H217.394V33H214.194V22.38L211.714 23.06L210.934 20.32L214.594 19ZM219.241 33V30.68L223.941 25.8C224.887 24.8267 225.361 24 225.361 23.32C225.361 22.88 225.227 22.5267 224.961 22.26C224.694 21.98 224.327 21.84 223.861 21.84C222.927 21.84 222.241 22.3467 221.801 23.36L219.101 21.78C219.527 20.78 220.167 20.02 221.021 19.5C221.874 18.98 222.807 18.72 223.821 18.72C225.127 18.72 226.241 19.1267 227.161 19.94C228.094 20.74 228.561 21.82 228.561 23.18C228.561 24.66 227.834 26.1267 226.381 27.58L224.061 29.92H228.761V33H219.241ZM233.605 25.92C233.232 26.2933 232.785 26.48 232.265 26.48C231.745 26.48 231.298 26.2933 230.925 25.92C230.552 25.5467 230.365 25.1 230.365 24.58C230.365 24.06 230.552 23.6133 230.925 23.24C231.298 22.8667 231.745 22.68 232.265 22.68C232.785 22.68 233.232 22.8667 233.605 23.24C233.978 23.6133 234.165 24.06 234.165 24.58C234.165 25.1 233.978 25.5467 233.605 25.92ZM233.605 32.72C233.232 33.0933 232.785 33.28 232.265 33.28C231.745 33.28 231.298 33.0933 230.925 32.72C230.552 32.3467 230.365 31.9 230.365 31.38C230.365 30.86 230.552 30.4133 230.925 30.04C231.298 29.6667 231.745 29.48 232.265 29.48C232.785 29.48 233.232 29.6667 233.605 30.04C233.978 30.4133 234.165 30.86 234.165 31.38C234.165 31.9 233.978 32.3467 233.605 32.72ZM245.55 31.3C244.55 32.62 243.157 33.28 241.37 33.28C239.584 33.28 238.184 32.62 237.17 31.3C236.17 29.9667 235.67 28.2 235.67 26C235.67 23.8 236.17 22.04 237.17 20.72C238.184 19.3867 239.584 18.72 241.37 18.72C243.157 18.72 244.55 19.3867 245.55 20.72C246.564 22.04 247.07 23.8 247.07 26C247.07 28.2 246.564 29.9667 245.55 31.3ZM238.87 26C238.87 28.7733 239.704 30.16 241.37 30.16C243.037 30.16 243.87 28.7733 243.87 26C243.87 23.2267 243.037 21.84 241.37 21.84C239.704 21.84 238.87 23.2267 238.87 26ZM258.148 31.3C257.148 32.62 255.755 33.28 253.968 33.28C252.181 33.28 250.781 32.62 249.768 31.3C248.768 29.9667 248.268 28.2 248.268 26C248.268 23.8 248.768 22.04 249.768 20.72C250.781 19.3867 252.181 18.72 253.968 18.72C255.755 18.72 257.148 19.3867 258.148 20.72C259.161 22.04 259.668 23.8 259.668 26C259.668 28.2 259.161 29.9667 258.148 31.3ZM251.468 26C251.468 28.7733 252.301 30.16 253.968 30.16C255.635 30.16 256.468 28.7733 256.468 26C256.468 23.2267 255.635 21.84 253.968 21.84C252.301 21.84 251.468 23.2267 251.468 26Z" fill="#222222"/>
<path d="M111.425 69.804C112.349 69.804 113.137 70.1633 113.791 70.882C114.444 71.5913 114.771 72.464 114.771 73.5C114.771 74.536 114.444 75.4133 113.791 76.132C113.137 76.8413 112.349 77.196 111.425 77.196C110.529 77.196 109.833 76.9113 109.339 76.342V79.8H107.239V70H109.339V70.658C109.833 70.0887 110.529 69.804 111.425 69.804ZM109.801 74.746C110.118 75.054 110.519 75.208 111.005 75.208C111.49 75.208 111.887 75.054 112.195 74.746C112.512 74.438 112.671 74.0227 112.671 73.5C112.671 72.9773 112.512 72.562 112.195 72.254C111.887 71.946 111.49 71.792 111.005 71.792C110.519 71.792 110.118 71.946 109.801 72.254C109.493 72.562 109.339 72.9773 109.339 73.5C109.339 74.0227 109.493 74.438 109.801 74.746ZM121.043 70H123.143V77H121.043V76.342C120.549 76.9113 119.853 77.196 118.957 77.196C118.033 77.196 117.245 76.8413 116.591 76.132C115.938 75.4133 115.611 74.536 115.611 73.5C115.611 72.464 115.938 71.5913 116.591 70.882C117.245 70.1633 118.033 69.804 118.957 69.804C119.853 69.804 120.549 70.0887 121.043 70.658V70ZM118.173 74.746C118.481 75.054 118.883 75.208 119.377 75.208C119.872 75.208 120.273 75.054 120.581 74.746C120.889 74.438 121.043 74.0227 121.043 73.5C121.043 72.9773 120.889 72.562 120.581 72.254C120.273 71.946 119.872 71.792 119.377 71.792C118.883 71.792 118.481 71.946 118.173 72.254C117.865 72.562 117.711 72.9773 117.711 73.5C117.711 74.0227 117.865 74.438 118.173 74.746ZM128.94 73.444C129.621 73.808 129.962 74.3587 129.962 75.096C129.962 75.7027 129.705 76.2067 129.192 76.608C128.688 77 127.979 77.196 127.064 77.196C125.636 77.196 124.656 76.6407 124.124 75.53L125.818 74.522C126.023 75.0913 126.448 75.376 127.092 75.376C127.643 75.376 127.918 75.194 127.918 74.83C127.918 74.5033 127.699 74.34 127.26 74.34H126.28V72.576H127.036C127.475 72.576 127.694 72.4173 127.694 72.1C127.694 71.764 127.475 71.596 127.036 71.596C126.513 71.596 126.131 71.8667 125.888 72.408L124.194 71.442C124.763 70.35 125.697 69.804 126.994 69.804C127.815 69.804 128.469 70.0093 128.954 70.42C129.439 70.8307 129.682 71.3253 129.682 71.904C129.682 72.5853 129.435 73.0987 128.94 73.444ZM134.402 77.196C133.263 77.196 132.353 76.8367 131.672 76.118C131 75.3993 130.664 74.4893 130.664 73.388C130.664 72.1933 130.841 71.2693 131.196 70.616C131.551 69.9627 132.265 69.37 133.338 68.838C133.459 68.782 133.651 68.6887 133.912 68.558C134.183 68.4273 134.355 68.3433 134.43 68.306C134.514 68.2593 134.645 68.1893 134.822 68.096C134.999 67.9933 135.116 67.914 135.172 67.858C135.237 67.7927 135.321 67.7087 135.424 67.606C135.536 67.5033 135.62 67.4007 135.676 67.298C135.741 67.186 135.802 67.06 135.858 66.92L137.594 67.914C137.463 68.4647 137.193 68.9033 136.782 69.23C136.381 69.5473 135.774 69.86 134.962 70.168C134.383 70.3827 133.963 70.5973 133.702 70.812C133.45 71.0173 133.268 71.2553 133.156 71.526C133.651 71.0873 134.29 70.868 135.074 70.868C135.793 70.868 136.455 71.148 137.062 71.708C137.669 72.2587 137.972 72.996 137.972 73.92C137.972 74.8813 137.645 75.67 136.992 76.286C136.348 76.8927 135.485 77.196 134.402 77.196ZM133.296 74.9C133.595 75.1707 133.959 75.306 134.388 75.306C134.817 75.306 135.172 75.1753 135.452 74.914C135.732 74.6527 135.872 74.3213 135.872 73.92C135.872 73.5093 135.727 73.1733 135.438 72.912C135.149 72.6413 134.785 72.506 134.346 72.506C133.954 72.506 133.609 72.632 133.31 72.884C133.011 73.1267 132.862 73.4533 132.862 73.864C132.862 74.284 133.007 74.6293 133.296 74.9ZM144.95 76.132C144.231 76.8413 143.354 77.196 142.318 77.196C141.282 77.196 140.404 76.8413 139.686 76.132C138.967 75.4133 138.608 74.536 138.608 73.5C138.608 72.464 138.967 71.5913 139.686 70.882C140.404 70.1633 141.282 69.804 142.318 69.804C143.354 69.804 144.231 70.1633 144.95 70.882C145.668 71.5913 146.028 72.464 146.028 73.5C146.028 74.536 145.668 75.4133 144.95 76.132ZM141.17 74.69C141.478 74.998 141.86 75.152 142.318 75.152C142.775 75.152 143.158 74.998 143.466 74.69C143.774 74.382 143.928 73.9853 143.928 73.5C143.928 73.0147 143.774 72.618 143.466 72.31C143.158 72.002 142.775 71.848 142.318 71.848C141.86 71.848 141.478 72.002 141.17 72.31C140.862 72.618 140.708 73.0147 140.708 73.5C140.708 73.9853 140.862 74.382 141.17 74.69ZM151.401 69.804C152.325 69.804 153.114 70.1633 153.767 70.882C154.421 71.5913 154.747 72.464 154.747 73.5C154.747 74.536 154.421 75.4133 153.767 76.132C153.114 76.8413 152.325 77.196 151.401 77.196C150.505 77.196 149.81 76.9113 149.315 76.342V79.8H147.215V70H149.315V70.658C149.81 70.0887 150.505 69.804 151.401 69.804ZM149.777 74.746C150.095 75.054 150.496 75.208 150.981 75.208C151.467 75.208 151.863 75.054 152.171 74.746C152.489 74.438 152.647 74.0227 152.647 73.5C152.647 72.9773 152.489 72.562 152.171 72.254C151.863 71.946 151.467 71.792 150.981 71.792C150.496 71.792 150.095 71.946 149.777 72.254C149.469 72.562 149.315 72.9773 149.315 73.5C149.315 74.0227 149.469 74.438 149.777 74.746ZM159.214 72.1C160.054 72.1 160.721 72.324 161.216 72.772C161.711 73.22 161.958 73.8127 161.958 74.55C161.958 75.2873 161.711 75.88 161.216 76.328C160.721 76.776 160.054 77 159.214 77H155.938V70H158.038V72.1H159.214ZM162.658 70H164.758V77H162.658V70ZM159.228 75.18C159.433 75.18 159.597 75.124 159.718 75.012C159.849 74.8907 159.914 74.7367 159.914 74.55C159.914 74.3633 159.849 74.214 159.718 74.102C159.597 73.9807 159.433 73.92 159.228 73.92H158.038V75.18H159.228ZM92.8733 93.132C92.1547 93.8413 91.2773 94.196 90.2413 94.196C89.2053 94.196 88.328 93.8413 87.6093 93.132C86.8907 92.4133 86.5313 91.536 86.5313 90.5C86.5313 89.464 86.8907 88.5913 87.6093 87.882C88.328 87.1633 89.2053 86.804 90.2413 86.804C91.2773 86.804 92.1547 87.1633 92.8733 87.882C93.592 88.5913 93.9513 89.464 93.9513 90.5C93.9513 91.536 93.592 92.4133 92.8733 93.132ZM89.0933 91.69C89.4013 91.998 89.784 92.152 90.2413 92.152C90.6987 92.152 91.0813 91.998 91.3893 91.69C91.6973 91.382 91.8513 90.9853 91.8513 90.5C91.8513 90.0147 91.6973 89.618 91.3893 89.31C91.0813 89.002 90.6987 88.848 90.2413 88.848C89.784 88.848 89.4013 89.002 89.0933 89.31C88.7853 89.618 88.6313 90.0147 88.6313 90.5C88.6313 90.9853 88.7853 91.382 89.0933 91.69ZM100.536 87V89.016H98.4497V94H96.3497V89.016H94.2357V87H100.536ZM109.422 87H111.522V94H109.422V91.48H107.042V94H104.942V87H107.042V89.52H109.422V87ZM118.145 87H120.245V94H118.145V93.342C117.65 93.9113 116.955 94.196 116.059 94.196C115.135 94.196 114.346 93.8413 113.693 93.132C113.04 92.4133 112.713 91.536 112.713 90.5C112.713 89.464 113.04 88.5913 113.693 87.882C114.346 87.1633 115.135 86.804 116.059 86.804C116.955 86.804 117.65 87.0887 118.145 87.658V87ZM115.275 91.746C115.583 92.054 115.984 92.208 116.479 92.208C116.974 92.208 117.375 92.054 117.683 91.746C117.991 91.438 118.145 91.0227 118.145 90.5C118.145 89.9773 117.991 89.562 117.683 89.254C117.375 88.946 116.974 88.792 116.479 88.792C115.984 88.792 115.583 88.946 115.275 89.254C114.967 89.562 114.813 89.9773 114.813 90.5C114.813 91.0227 114.967 91.438 115.275 91.746ZM125.146 94.196C124.082 94.196 123.195 93.8413 122.486 93.132C121.786 92.4227 121.436 91.5453 121.436 90.5C121.436 89.4547 121.786 88.5773 122.486 87.868C123.195 87.1587 124.082 86.804 125.146 86.804C125.818 86.804 126.434 86.9673 126.994 87.294C127.563 87.6207 128.002 88.0547 128.31 88.596L126.476 89.66C126.224 89.1373 125.771 88.876 125.118 88.876C124.66 88.876 124.282 89.03 123.984 89.338C123.685 89.6367 123.536 90.024 123.536 90.5C123.536 90.976 123.685 91.368 123.984 91.676C124.282 91.9747 124.66 92.124 125.118 92.124C125.78 92.124 126.233 91.8627 126.476 91.34L128.31 92.39C128.002 92.9407 127.568 93.3793 127.008 93.706C126.448 94.0327 125.827 94.196 125.146 94.196ZM134.825 87V89.016H132.739V94H130.639V89.016H128.525V87H134.825ZM140.54 87H142.64V94H140.54V93.342C140.045 93.9113 139.35 94.196 138.454 94.196C137.53 94.196 136.741 93.8413 136.088 93.132C135.434 92.4133 135.108 91.536 135.108 90.5C135.108 89.464 135.434 88.5913 136.088 87.882C136.741 87.1633 137.53 86.804 138.454 86.804C139.35 86.804 140.045 87.0887 140.54 87.658V87ZM137.67 91.746C137.978 92.054 138.379 92.208 138.874 92.208C139.368 92.208 139.77 92.054 140.078 91.746C140.386 91.438 140.54 91.0227 140.54 90.5C140.54 89.9773 140.386 89.562 140.078 89.254C139.77 88.946 139.368 88.792 138.874 88.792C138.379 88.792 137.978 88.946 137.67 89.254C137.362 89.562 137.208 89.9773 137.208 90.5C137.208 91.0227 137.362 91.438 137.67 91.746ZM149.402 90.416C150.027 90.752 150.34 91.2793 150.34 91.998C150.34 92.5953 150.13 93.0807 149.71 93.454C149.299 93.818 148.716 94 147.96 94H144.18V87H147.68C148.436 87 149.019 87.1867 149.43 87.56C149.85 87.924 150.06 88.4047 150.06 89.002C150.06 89.618 149.841 90.0893 149.402 90.416ZM147.456 88.68H146.14V89.66H147.456C147.867 89.66 148.072 89.5013 148.072 89.184C148.072 88.848 147.867 88.68 147.456 88.68ZM147.68 92.264C148.091 92.264 148.296 92.0913 148.296 91.746C148.296 91.4193 148.091 91.256 147.68 91.256H146.14V92.264H147.68ZM155.865 87H157.965V94H155.865V91.48H153.485V94H151.385V87H153.485V89.52H155.865V87ZM164.546 87H166.086V94H164.042V90.5L161.046 94H159.506V87H161.55V90.5L164.546 87ZM174.347 94H171.967L169.727 90.906V94H167.627V87H169.727V90.066L171.827 87H174.277L171.729 90.5L174.347 94ZM180.688 93.132C179.969 93.8413 179.092 94.196 178.056 94.196C177.02 94.196 176.142 93.8413 175.424 93.132C174.705 92.4133 174.346 91.536 174.346 90.5C174.346 89.464 174.705 88.5913 175.424 87.882C176.142 87.1633 177.02 86.804 178.056 86.804C179.092 86.804 179.969 87.1633 180.688 87.882C181.406 88.5913 181.766 89.464 181.766 90.5C181.766 91.536 181.406 92.4133 180.688 93.132ZM176.908 91.69C177.216 91.998 177.598 92.152 178.056 92.152C178.513 92.152 178.896 91.998 179.204 91.69C179.512 91.382 179.666 90.9853 179.666 90.5C179.666 90.0147 179.512 89.618 179.204 89.31C178.896 89.002 178.513 88.848 178.056 88.848C177.598 88.848 177.216 89.002 176.908 89.31C176.6 89.618 176.446 90.0147 176.446 90.5C176.446 90.9853 176.6 91.382 176.908 91.69ZM188.176 90.416C188.801 90.752 189.114 91.2793 189.114 91.998C189.114 92.5953 188.904 93.0807 188.484 93.454C188.073 93.818 187.49 94 186.734 94H182.954V87H186.454C187.21 87 187.793 87.1867 188.204 87.56C188.624 87.924 188.834 88.4047 188.834 89.002C188.834 89.618 188.614 90.0893 188.176 90.416ZM186.23 88.68H184.914V89.66H186.23C186.64 89.66 186.846 89.5013 186.846 89.184C186.846 88.848 186.64 88.68 186.23 88.68ZM186.454 92.264C186.864 92.264 187.07 92.0913 187.07 91.746C187.07 91.4193 186.864 91.256 186.454 91.256H184.914V92.264H186.454Z" fill="#3E3E3E"/>
<path d="M16.194 18H18.994V32H15.794V21.38L13.314 22.06L12.534 19.32L16.194 18ZM24.2604 18H27.0604V32H23.8604V21.38L21.3804 22.06L20.6004 19.32L24.2604 18ZM32.6068 24.92C32.2335 25.2933 31.7868 25.48 31.2668 25.48C30.7468 25.48 30.3001 25.2933 29.9268 24.92C29.5535 24.5467 29.3668 24.1 29.3668 23.58C29.3668 23.06 29.5535 22.6133 29.9268 22.24C30.3001 21.8667 30.7468 21.68 31.2668 21.68C31.7868 21.68 32.2335 21.8667 32.6068 22.24C32.9801 22.6133 33.1668 23.06 33.1668 23.58C33.1668 24.1 32.9801 24.5467 32.6068 24.92ZM32.6068 31.72C32.2335 32.0933 31.7868 32.28 31.2668 32.28C30.7468 32.28 30.3001 32.0933 29.9268 31.72C29.5535 31.3467 29.3668 30.9 29.3668 30.38C29.3668 29.86 29.5535 29.4133 29.9268 29.04C30.3001 28.6667 30.7468 28.48 31.2668 28.48C31.7868 28.48 32.2335 28.6667 32.6068 29.04C32.9801 29.4133 33.1668 29.86 33.1668 30.38C33.1668 30.9 32.9801 31.3467 32.6068 31.72ZM41.4923 23.68C42.3856 23.9867 43.1056 24.4867 43.6523 25.18C44.1989 25.86 44.4723 26.6667 44.4723 27.6C44.4723 29.0667 43.9789 30.2133 42.9923 31.04C42.0056 31.8667 40.7989 32.28 39.3723 32.28C38.2656 32.28 37.2723 32.0267 36.3923 31.52C35.5256 31.0133 34.8856 30.2667 34.4723 29.28L37.2323 27.68C37.5789 28.6667 38.2923 29.16 39.3723 29.16C39.9989 29.16 40.4723 29.0133 40.7923 28.72C41.1123 28.4267 41.2723 28.0533 41.2723 27.6C41.2723 27.1467 41.1123 26.7733 40.7923 26.48C40.4723 26.1867 39.9989 26.04 39.3723 26.04H38.7123L37.4923 24.22L40.0323 21H34.9123V18H43.9123V20.6L41.4923 23.68ZM55.5484 30.3C54.5484 31.62 53.155 32.28 51.3684 32.28C49.5817 32.28 48.1817 31.62 47.1684 30.3C46.1684 28.9667 45.6684 27.2 45.6684 25C45.6684 22.8 46.1684 21.04 47.1684 19.72C48.1817 18.3867 49.5817 17.72 51.3684 17.72C53.155 17.72 54.5484 18.3867 55.5484 19.72C56.5617 21.04 57.0684 22.8 57.0684 25C57.0684 27.2 56.5617 28.9667 55.5484 30.3ZM48.8684 25C48.8684 27.7733 49.7017 29.16 51.3684 29.16C53.035 29.16 53.8684 27.7733 53.8684 25C53.8684 22.2267 53.035 20.84 51.3684 20.84C49.7017 20.84 48.8684 22.2267 48.8684 25Z" fill="#222222"/>
<line x1="70.8088" y1="27.5" x2="200.49" y2="27.5" stroke="#FBD5CD" stroke-width="3"/>
<line x1="70.8088" y1="107.5" x2="200.49" y2="107.5" stroke="#FBD5CD" stroke-width="3"/>
</svg>
