<svg width="633" height="134" viewBox="0 0 633 134" fill="none" xmlns="http://www.w3.org/2000/svg">
<path d="M37.9171 97.8H44.3571V130H36.9971V105.574L31.2931 107.138L29.4991 100.836L37.9171 97.8ZM48.6038 130V124.664L59.4138 113.44C61.5911 111.201 62.6798 109.3 62.6798 107.736C62.6798 106.724 62.3731 105.911 61.7598 105.298C61.1465 104.654 60.3031 104.332 59.2298 104.332C57.0831 104.332 55.5038 105.497 54.4918 107.828L48.2818 104.194C49.2631 101.894 50.7351 100.146 52.6978 98.95C54.6605 97.754 56.8071 97.156 59.1378 97.156C62.1431 97.156 64.7038 98.0913 66.8198 99.962C68.9665 101.802 70.0398 104.286 70.0398 107.414C70.0398 110.818 68.3685 114.191 65.0258 117.534L59.6898 122.916H70.4998V130H48.6038ZM81.6411 113.716C80.7825 114.575 79.7551 115.004 78.5591 115.004C77.3631 115.004 76.3358 114.575 75.4771 113.716C74.6185 112.857 74.1891 111.83 74.1891 110.634C74.1891 109.438 74.6185 108.411 75.4771 107.552C76.3358 106.693 77.3631 106.264 78.5591 106.264C79.7551 106.264 80.7825 106.693 81.6411 107.552C82.4998 108.411 82.9291 109.438 82.9291 110.634C82.9291 111.83 82.4998 112.857 81.6411 113.716ZM81.6411 129.356C80.7825 130.215 79.7551 130.644 78.5591 130.644C77.3631 130.644 76.3358 130.215 75.4771 129.356C74.6185 128.497 74.1891 127.47 74.1891 126.274C74.1891 125.078 74.6185 124.051 75.4771 123.192C76.3358 122.333 77.3631 121.904 78.5591 121.904C79.7551 121.904 80.7825 122.333 81.6411 123.192C82.4998 124.051 82.9291 125.078 82.9291 126.274C82.9291 127.47 82.4998 128.497 81.6411 129.356ZM109.116 126.09C106.816 129.126 103.611 130.644 99.5017 130.644C95.3924 130.644 92.1724 129.126 89.8417 126.09C87.5417 123.023 86.3917 118.96 86.3917 113.9C86.3917 108.84 87.5417 104.792 89.8417 101.756C92.1724 98.6893 95.3924 97.156 99.5017 97.156C103.611 97.156 106.816 98.6893 109.116 101.756C111.446 104.792 112.612 108.84 112.612 113.9C112.612 118.96 111.446 123.023 109.116 126.09ZM93.7517 113.9C93.7517 120.279 95.6684 123.468 99.5017 123.468C103.335 123.468 105.252 120.279 105.252 113.9C105.252 107.521 103.335 104.332 99.5017 104.332C95.6684 104.332 93.7517 107.521 93.7517 113.9ZM138.09 126.09C135.79 129.126 132.586 130.644 128.476 130.644C124.367 130.644 121.147 129.126 118.816 126.09C116.516 123.023 115.366 118.96 115.366 113.9C115.366 108.84 116.516 104.792 118.816 101.756C121.147 98.6893 124.367 97.156 128.476 97.156C132.586 97.156 135.79 98.6893 138.09 101.756C140.421 104.792 141.586 108.84 141.586 113.9C141.586 118.96 140.421 123.023 138.09 126.09ZM122.726 113.9C122.726 120.279 124.643 123.468 128.476 123.468C132.31 123.468 134.226 120.279 134.226 113.9C134.226 107.521 132.31 104.332 128.476 104.332C124.643 104.332 122.726 107.521 122.726 113.9Z" fill="#222222"/>
<path d="M498.984 97.8H505.424V130H498.064V105.574L492.36 107.138L490.566 100.836L498.984 97.8ZM521.769 109.116C524.928 109.116 527.55 110.067 529.635 111.968C531.751 113.839 532.809 116.476 532.809 119.88C532.809 123.253 531.675 125.891 529.405 127.792C527.136 129.693 524.361 130.644 521.079 130.644C518.411 130.644 516.065 130.077 514.041 128.942C512.017 127.777 510.53 126.044 509.579 123.744L515.927 120.064C516.725 122.333 518.442 123.468 521.079 123.468C522.521 123.468 523.609 123.131 524.345 122.456C525.081 121.781 525.449 120.923 525.449 119.88C525.449 118.837 525.097 117.979 524.391 117.304C523.686 116.629 522.659 116.292 521.309 116.292H511.235L512.569 97.8H531.199V104.7H519.469L519.147 109.116H521.769ZM542.574 113.716C541.715 114.575 540.688 115.004 539.492 115.004C538.296 115.004 537.268 114.575 536.41 113.716C535.551 112.857 535.122 111.83 535.122 110.634C535.122 109.438 535.551 108.411 536.41 107.552C537.268 106.693 538.296 106.264 539.492 106.264C540.688 106.264 541.715 106.693 542.574 107.552C543.432 108.411 543.862 109.438 543.862 110.634C543.862 111.83 543.432 112.857 542.574 113.716ZM542.574 129.356C541.715 130.215 540.688 130.644 539.492 130.644C538.296 130.644 537.268 130.215 536.41 129.356C535.551 128.497 535.122 127.47 535.122 126.274C535.122 125.078 535.551 124.051 536.41 123.192C537.268 122.333 538.296 121.904 539.492 121.904C540.688 121.904 541.715 122.333 542.574 123.192C543.432 124.051 543.862 125.078 543.862 126.274C543.862 127.47 543.432 128.497 542.574 129.356ZM570.048 126.09C567.748 129.126 564.544 130.644 560.434 130.644C556.325 130.644 553.105 129.126 550.774 126.09C548.474 123.023 547.324 118.96 547.324 113.9C547.324 108.84 548.474 104.792 550.774 101.756C553.105 98.6893 556.325 97.156 560.434 97.156C564.544 97.156 567.748 98.6893 570.048 101.756C572.379 104.792 573.544 108.84 573.544 113.9C573.544 118.96 572.379 123.023 570.048 126.09ZM554.684 113.9C554.684 120.279 556.601 123.468 560.434 123.468C564.268 123.468 566.184 120.279 566.184 113.9C566.184 107.521 564.268 104.332 560.434 104.332C556.601 104.332 554.684 107.521 554.684 113.9ZM599.023 126.09C596.723 129.126 593.518 130.644 589.409 130.644C585.3 130.644 582.08 129.126 579.749 126.09C577.449 123.023 576.299 118.96 576.299 113.9C576.299 108.84 577.449 104.792 579.749 101.756C582.08 98.6893 585.3 97.156 589.409 97.156C593.518 97.156 596.723 98.6893 599.023 101.756C601.354 104.792 602.519 108.84 602.519 113.9C602.519 118.96 601.354 123.023 599.023 126.09ZM583.659 113.9C583.659 120.279 585.576 123.468 589.409 123.468C593.242 123.468 595.159 120.279 595.159 113.9C595.159 107.521 593.242 104.332 589.409 104.332C585.576 104.332 583.659 107.521 583.659 113.9Z" fill="#222222"/>
<path d="M258.211 19.28C256.691 19.28 255.424 18.7733 254.411 17.76C253.411 16.7467 252.911 15.4933 252.911 14C252.911 12.5067 253.411 11.2533 254.411 10.24C255.424 9.22667 256.691 8.72 258.211 8.72C259.171 8.72 260.051 8.95333 260.851 9.42C261.664 9.88667 262.291 10.5067 262.731 11.28L260.111 12.8C259.751 12.0533 259.104 11.68 258.171 11.68C257.517 11.68 256.977 11.9 256.551 12.34C256.124 12.7667 255.911 13.32 255.911 14C255.911 14.68 256.124 15.24 256.551 15.68C256.977 16.1067 257.517 16.32 258.171 16.32C259.117 16.32 259.764 15.9467 260.111 15.2L262.731 16.7C262.291 17.4867 261.671 18.1133 260.871 18.58C260.071 19.0467 259.184 19.28 258.211 19.28ZM268.583 19.28C266.956 19.28 265.656 18.7667 264.683 17.74C263.723 16.7133 263.243 15.4133 263.243 13.84C263.243 12.1333 263.496 10.8133 264.003 9.88C264.509 8.94667 265.529 8.1 267.063 7.34C267.236 7.26 267.509 7.12667 267.883 6.94C268.269 6.75333 268.516 6.63333 268.623 6.58C268.743 6.51333 268.929 6.41333 269.183 6.28C269.436 6.13333 269.603 6.02 269.683 5.94C269.776 5.84667 269.896 5.72667 270.043 5.58C270.203 5.43333 270.323 5.28667 270.403 5.14C270.496 4.98 270.583 4.8 270.663 4.6L273.143 6.02C272.956 6.80667 272.569 7.43333 271.983 7.9C271.409 8.35333 270.543 8.8 269.383 9.24C268.556 9.54667 267.956 9.85333 267.583 10.16C267.223 10.4533 266.963 10.7933 266.803 11.18C267.509 10.5533 268.423 10.24 269.543 10.24C270.569 10.24 271.516 10.64 272.383 11.44C273.249 12.2267 273.683 13.28 273.683 14.6C273.683 15.9733 273.216 17.1 272.283 17.98C271.363 18.8467 270.129 19.28 268.583 19.28ZM267.003 16C267.429 16.3867 267.949 16.58 268.563 16.58C269.176 16.58 269.683 16.3933 270.083 16.02C270.483 15.6467 270.683 15.1733 270.683 14.6C270.683 14.0133 270.476 13.5333 270.063 13.16C269.649 12.7733 269.129 12.58 268.503 12.58C267.943 12.58 267.449 12.76 267.023 13.12C266.596 13.4667 266.383 13.9333 266.383 14.52C266.383 15.12 266.589 15.6133 267.003 16ZM283.65 17.76C282.624 18.7733 281.37 19.28 279.89 19.28C278.41 19.28 277.157 18.7733 276.13 17.76C275.104 16.7333 274.59 15.48 274.59 14C274.59 12.52 275.104 11.2733 276.13 10.26C277.157 9.23333 278.41 8.72 279.89 8.72C281.37 8.72 282.624 9.23333 283.65 10.26C284.677 11.2733 285.19 12.52 285.19 14C285.19 15.48 284.677 16.7333 283.65 17.76ZM278.25 15.7C278.69 16.14 279.237 16.36 279.89 16.36C280.544 16.36 281.09 16.14 281.53 15.7C281.97 15.26 282.19 14.6933 282.19 14C282.19 13.3067 281.97 12.74 281.53 12.3C281.09 11.86 280.544 11.64 279.89 11.64C279.237 11.64 278.69 11.86 278.25 12.3C277.81 12.74 277.59 13.3067 277.59 14C277.59 14.6933 277.81 15.26 278.25 15.7ZM292.867 8.72C294.187 8.72 295.314 9.23333 296.247 10.26C297.18 11.2733 297.647 12.52 297.647 14C297.647 15.48 297.18 16.7333 296.247 17.76C295.314 18.7733 294.187 19.28 292.867 19.28C291.587 19.28 290.594 18.8733 289.887 18.06V23H286.887V9H289.887V9.94C290.594 9.12667 291.587 8.72 292.867 8.72ZM290.547 15.78C291 16.22 291.574 16.44 292.267 16.44C292.96 16.44 293.527 16.22 293.967 15.78C294.42 15.34 294.647 14.7467 294.647 14C294.647 13.2533 294.42 12.66 293.967 12.22C293.527 11.78 292.96 11.56 292.267 11.56C291.574 11.56 291 11.78 290.547 12.22C290.107 12.66 289.887 13.2533 289.887 14C289.887 14.7467 290.107 15.34 290.547 15.78ZM311.348 9V11.88H307.348V19H304.348V9H311.348ZM320.818 17.76C319.792 18.7733 318.538 19.28 317.058 19.28C315.578 19.28 314.325 18.7733 313.298 17.76C312.272 16.7333 311.758 15.48 311.758 14C311.758 12.52 312.272 11.2733 313.298 10.26C314.325 9.23333 315.578 8.72 317.058 8.72C318.538 8.72 319.792 9.23333 320.818 10.26C321.845 11.2733 322.358 12.52 322.358 14C322.358 15.48 321.845 16.7333 320.818 17.76ZM315.418 15.7C315.858 16.14 316.405 16.36 317.058 16.36C317.712 16.36 318.258 16.14 318.698 15.7C319.138 15.26 319.358 14.6933 319.358 14C319.358 13.3067 319.138 12.74 318.698 12.3C318.258 11.86 317.712 11.64 317.058 11.64C316.405 11.64 315.858 11.86 315.418 12.3C314.978 12.74 314.758 13.3067 314.758 14C314.758 14.6933 314.978 15.26 315.418 15.7ZM328.855 19.28C327.335 19.28 326.068 18.7733 325.055 17.76C324.055 16.7467 323.555 15.4933 323.555 14C323.555 12.5067 324.055 11.2533 325.055 10.24C326.068 9.22667 327.335 8.72 328.855 8.72C329.815 8.72 330.695 8.95333 331.495 9.42C332.308 9.88667 332.935 10.5067 333.375 11.28L330.755 12.8C330.395 12.0533 329.748 11.68 328.815 11.68C328.162 11.68 327.622 11.9 327.195 12.34C326.768 12.7667 326.555 13.32 326.555 14C326.555 14.68 326.768 15.24 327.195 15.68C327.622 16.1067 328.162 16.32 328.815 16.32C329.762 16.32 330.408 15.9467 330.755 15.2L333.375 16.7C332.935 17.4867 332.315 18.1133 331.515 18.58C330.715 19.0467 329.828 19.28 328.855 19.28ZM342.682 9V11.88H339.702V19H336.702V11.88H333.682V9H342.682ZM346.266 15.2C346.613 16.1333 347.413 16.6 348.666 16.6C349.48 16.6 350.12 16.3467 350.586 15.84L352.986 17.22C352 18.5933 350.546 19.28 348.626 19.28C346.946 19.28 345.6 18.78 344.586 17.78C343.586 16.78 343.086 15.52 343.086 14C343.086 12.4933 343.58 11.24 344.566 10.24C345.566 9.22667 346.846 8.72 348.406 8.72C349.86 8.72 351.066 9.22667 352.026 10.24C353 11.24 353.486 12.4933 353.486 14C353.486 14.4267 353.446 14.8267 353.366 15.2H346.266ZM346.206 12.96H350.506C350.213 11.9067 349.506 11.38 348.386 11.38C347.226 11.38 346.5 11.9067 346.206 12.96ZM356.888 7.82V5.22H362.888V7.82H356.888ZM362.388 9H364.588V19H361.668V14L357.388 19H355.188V9H358.108V14L362.388 9Z" fill="#3E3E3E"/>
<path d="M494.917 13.8H501.357V46H493.997V21.574L488.293 23.138L486.499 16.836L494.917 13.8ZM505.604 46V40.664L516.414 29.44C518.591 27.2013 519.68 25.3 519.68 23.736C519.68 22.724 519.373 21.9113 518.76 21.298C518.146 20.654 517.303 20.332 516.23 20.332C514.083 20.332 512.504 21.4973 511.492 23.828L505.282 20.194C506.263 17.894 507.735 16.146 509.698 14.95C511.66 13.754 513.807 13.156 516.138 13.156C519.143 13.156 521.704 14.0913 523.82 15.962C525.966 17.802 527.04 20.286 527.04 23.414C527.04 26.818 525.368 30.1913 522.026 33.534L516.69 38.916H527.5V46H505.604ZM538.641 29.716C537.782 30.5747 536.755 31.004 535.559 31.004C534.363 31.004 533.336 30.5747 532.477 29.716C531.618 28.8573 531.189 27.83 531.189 26.634C531.189 25.438 531.618 24.4107 532.477 23.552C533.336 22.6933 534.363 22.264 535.559 22.264C536.755 22.264 537.782 22.6933 538.641 23.552C539.5 24.4107 539.929 25.438 539.929 26.634C539.929 27.83 539.5 28.8573 538.641 29.716ZM538.641 45.356C537.782 46.2147 536.755 46.644 535.559 46.644C534.363 46.644 533.336 46.2147 532.477 45.356C531.618 44.4973 531.189 43.47 531.189 42.274C531.189 41.078 531.618 40.0507 532.477 39.192C533.336 38.3333 534.363 37.904 535.559 37.904C536.755 37.904 537.782 38.3333 538.641 39.192C539.5 40.0507 539.929 41.078 539.929 42.274C539.929 43.47 539.5 44.4973 538.641 45.356ZM566.116 42.09C563.816 45.126 560.611 46.644 556.502 46.644C552.392 46.644 549.172 45.126 546.842 42.09C544.542 39.0233 543.392 34.96 543.392 29.9C543.392 24.84 544.542 20.792 546.842 17.756C549.172 14.6893 552.392 13.156 556.502 13.156C560.611 13.156 563.816 14.6893 566.116 17.756C568.446 20.792 569.612 24.84 569.612 29.9C569.612 34.96 568.446 39.0233 566.116 42.09ZM550.752 29.9C550.752 36.2787 552.668 39.468 556.502 39.468C560.335 39.468 562.252 36.2787 562.252 29.9C562.252 23.5213 560.335 20.332 556.502 20.332C552.668 20.332 550.752 23.5213 550.752 29.9ZM595.09 42.09C592.79 45.126 589.586 46.644 585.476 46.644C581.367 46.644 578.147 45.126 575.816 42.09C573.516 39.0233 572.366 34.96 572.366 29.9C572.366 24.84 573.516 20.792 575.816 17.756C578.147 14.6893 581.367 13.156 585.476 13.156C589.586 13.156 592.79 14.6893 595.09 17.756C597.421 20.792 598.586 24.84 598.586 29.9C598.586 34.96 597.421 39.0233 595.09 42.09ZM579.726 29.9C579.726 36.2787 581.643 39.468 585.476 39.468C589.31 39.468 591.226 36.2787 591.226 29.9C591.226 23.5213 589.31 20.332 585.476 20.332C581.643 20.332 579.726 23.5213 579.726 29.9Z" fill="#222222"/>
<path d="M209.123 89.72C210.443 89.72 211.57 90.2333 212.503 91.26C213.436 92.2733 213.903 93.52 213.903 95C213.903 96.48 213.436 97.7333 212.503 98.76C211.57 99.7733 210.443 100.28 209.123 100.28C207.843 100.28 206.85 99.8733 206.143 99.06V104H203.143V90H206.143V90.94C206.85 90.1267 207.843 89.72 209.123 89.72ZM206.803 96.78C207.256 97.22 207.83 97.44 208.523 97.44C209.216 97.44 209.783 97.22 210.223 96.78C210.676 96.34 210.903 95.7467 210.903 95C210.903 94.2533 210.676 93.66 210.223 93.22C209.783 92.78 209.216 92.56 208.523 92.56C207.83 92.56 207.256 92.78 206.803 93.22C206.363 93.66 206.143 94.2533 206.143 95C206.143 95.7467 206.363 96.34 206.803 96.78ZM222.864 90H225.864V100H222.864V99.06C222.157 99.8733 221.164 100.28 219.884 100.28C218.564 100.28 217.437 99.7733 216.504 98.76C215.571 97.7333 215.104 96.48 215.104 95C215.104 93.52 215.571 92.2733 216.504 91.26C217.437 90.2333 218.564 89.72 219.884 89.72C221.164 89.72 222.157 90.1267 222.864 90.94V90ZM218.764 96.78C219.204 97.22 219.777 97.44 220.484 97.44C221.191 97.44 221.764 97.22 222.204 96.78C222.644 96.34 222.864 95.7467 222.864 95C222.864 94.2533 222.644 93.66 222.204 93.22C221.764 92.78 221.191 92.56 220.484 92.56C219.777 92.56 219.204 92.78 218.764 93.22C218.324 93.66 218.104 94.2533 218.104 95C218.104 95.7467 218.324 96.34 218.764 96.78ZM234.145 94.92C235.118 95.44 235.605 96.2267 235.605 97.28C235.605 98.1467 235.238 98.8667 234.505 99.44C233.785 100 232.772 100.28 231.465 100.28C229.425 100.28 228.025 99.4867 227.265 97.9L229.685 96.46C229.978 97.2733 230.585 97.68 231.505 97.68C232.292 97.68 232.685 97.42 232.685 96.9C232.685 96.4333 232.372 96.2 231.745 96.2H230.345V93.68H231.425C232.052 93.68 232.365 93.4533 232.365 93C232.365 92.52 232.052 92.28 231.425 92.28C230.678 92.28 230.132 92.6667 229.785 93.44L227.365 92.06C228.178 90.5 229.512 89.72 231.365 89.72C232.538 89.72 233.472 90.0133 234.165 90.6C234.858 91.1867 235.205 91.8933 235.205 92.72C235.205 93.6933 234.852 94.4267 234.145 94.92ZM241.948 100.28C240.321 100.28 239.021 99.7667 238.048 98.74C237.088 97.7133 236.608 96.4133 236.608 94.84C236.608 93.1333 236.861 91.8133 237.368 90.88C237.874 89.9467 238.894 89.1 240.428 88.34C240.601 88.26 240.874 88.1267 241.248 87.94C241.634 87.7533 241.881 87.6333 241.988 87.58C242.108 87.5133 242.294 87.4133 242.548 87.28C242.801 87.1333 242.968 87.02 243.048 86.94C243.141 86.8467 243.261 86.7267 243.408 86.58C243.568 86.4333 243.688 86.2867 243.768 86.14C243.861 85.98 243.948 85.8 244.028 85.6L246.508 87.02C246.321 87.8067 245.934 88.4333 245.348 88.9C244.774 89.3533 243.908 89.8 242.748 90.24C241.921 90.5467 241.321 90.8533 240.948 91.16C240.588 91.4533 240.328 91.7933 240.168 92.18C240.874 91.5533 241.788 91.24 242.908 91.24C243.934 91.24 244.881 91.64 245.748 92.44C246.614 93.2267 247.048 94.28 247.048 95.6C247.048 96.9733 246.581 98.1 245.648 98.98C244.728 99.8467 243.494 100.28 241.948 100.28ZM240.368 97C240.794 97.3867 241.314 97.58 241.928 97.58C242.541 97.58 243.048 97.3933 243.448 97.02C243.848 96.6467 244.048 96.1733 244.048 95.6C244.048 95.0133 243.841 94.5333 243.428 94.16C243.014 93.7733 242.494 93.58 241.868 93.58C241.308 93.58 240.814 93.76 240.388 94.12C239.961 94.4667 239.748 94.9333 239.748 95.52C239.748 96.12 239.954 96.6133 240.368 97ZM257.015 98.76C255.989 99.7733 254.735 100.28 253.255 100.28C251.775 100.28 250.522 99.7733 249.495 98.76C248.469 97.7333 247.955 96.48 247.955 95C247.955 93.52 248.469 92.2733 249.495 91.26C250.522 90.2333 251.775 89.72 253.255 89.72C254.735 89.72 255.989 90.2333 257.015 91.26C258.042 92.2733 258.555 93.52 258.555 95C258.555 96.48 258.042 97.7333 257.015 98.76ZM251.615 96.7C252.055 97.14 252.602 97.36 253.255 97.36C253.909 97.36 254.455 97.14 254.895 96.7C255.335 96.26 255.555 95.6933 255.555 95C255.555 94.3067 255.335 93.74 254.895 93.3C254.455 92.86 253.909 92.64 253.255 92.64C252.602 92.64 252.055 92.86 251.615 93.3C251.175 93.74 250.955 94.3067 250.955 95C250.955 95.6933 251.175 96.26 251.615 96.7ZM266.232 89.72C267.552 89.72 268.679 90.2333 269.612 91.26C270.546 92.2733 271.012 93.52 271.012 95C271.012 96.48 270.546 97.7333 269.612 98.76C268.679 99.7733 267.552 100.28 266.232 100.28C264.952 100.28 263.959 99.8733 263.252 99.06V104H260.252V90H263.252V90.94C263.959 90.1267 264.952 89.72 266.232 89.72ZM263.912 96.78C264.366 97.22 264.939 97.44 265.632 97.44C266.326 97.44 266.892 97.22 267.332 96.78C267.786 96.34 268.012 95.7467 268.012 95C268.012 94.2533 267.786 93.66 267.332 93.22C266.892 92.78 266.326 92.56 265.632 92.56C264.939 92.56 264.366 92.78 263.912 93.22C263.472 93.66 263.252 94.2533 263.252 95C263.252 95.7467 263.472 96.34 263.912 96.78ZM277.393 93C278.593 93 279.547 93.32 280.253 93.96C280.96 94.6 281.313 95.4467 281.313 96.5C281.313 97.5533 280.96 98.4 280.253 99.04C279.547 99.68 278.593 100 277.393 100H272.713V90H275.713V93H277.393ZM282.313 90H285.313V100H282.313V90ZM277.413 97.4C277.707 97.4 277.94 97.32 278.113 97.16C278.3 96.9867 278.393 96.7667 278.393 96.5C278.393 96.2333 278.3 96.02 278.113 95.86C277.94 95.6867 277.707 95.6 277.413 95.6H275.713V97.4H277.413ZM301.078 98.76C300.051 99.7733 298.798 100.28 297.318 100.28C295.838 100.28 294.585 99.7733 293.558 98.76C292.531 97.7333 292.018 96.48 292.018 95C292.018 93.52 292.531 92.2733 293.558 91.26C294.585 90.2333 295.838 89.72 297.318 89.72C298.798 89.72 300.051 90.2333 301.078 91.26C302.105 92.2733 302.618 93.52 302.618 95C302.618 96.48 302.105 97.7333 301.078 98.76ZM295.678 96.7C296.118 97.14 296.665 97.36 297.318 97.36C297.971 97.36 298.518 97.14 298.958 96.7C299.398 96.26 299.618 95.6933 299.618 95C299.618 94.3067 299.398 93.74 298.958 93.3C298.518 92.86 297.971 92.64 297.318 92.64C296.665 92.64 296.118 92.86 295.678 93.3C295.238 93.74 295.018 94.3067 295.018 95C295.018 95.6933 295.238 96.26 295.678 96.7ZM312.024 90V92.88H309.044V100H306.044V92.88H303.024V90H312.024ZM324.719 90H327.719V100H324.719V96.4H321.319V100H318.319V90H321.319V93.6H324.719V90ZM337.18 90H340.18V100H337.18V99.06C336.474 99.8733 335.48 100.28 334.2 100.28C332.88 100.28 331.754 99.7733 330.82 98.76C329.887 97.7333 329.42 96.48 329.42 95C329.42 93.52 329.887 92.2733 330.82 91.26C331.754 90.2333 332.88 89.72 334.2 89.72C335.48 89.72 336.474 90.1267 337.18 90.94V90ZM333.08 96.78C333.52 97.22 334.094 97.44 334.8 97.44C335.507 97.44 336.08 97.22 336.52 96.78C336.96 96.34 337.18 95.7467 337.18 95C337.18 94.2533 336.96 93.66 336.52 93.22C336.08 92.78 335.507 92.56 334.8 92.56C334.094 92.56 333.52 92.78 333.08 93.22C332.64 93.66 332.42 94.2533 332.42 95C332.42 95.7467 332.64 96.34 333.08 96.78ZM347.181 100.28C345.661 100.28 344.395 99.7733 343.381 98.76C342.381 97.7467 341.881 96.4933 341.881 95C341.881 93.5067 342.381 92.2533 343.381 91.24C344.395 90.2267 345.661 89.72 347.181 89.72C348.141 89.72 349.021 89.9533 349.821 90.42C350.635 90.8867 351.261 91.5067 351.701 92.28L349.081 93.8C348.721 93.0533 348.075 92.68 347.141 92.68C346.488 92.68 345.948 92.9 345.521 93.34C345.095 93.7667 344.881 94.32 344.881 95C344.881 95.68 345.095 96.24 345.521 96.68C345.948 97.1067 346.488 97.32 347.141 97.32C348.088 97.32 348.735 96.9467 349.081 96.2L351.701 97.7C351.261 98.4867 350.641 99.1133 349.841 99.58C349.041 100.047 348.155 100.28 347.181 100.28ZM361.009 90V92.88H358.029V100H355.029V92.88H352.009V90H361.009ZM369.173 90H372.173V100H369.173V99.06C368.466 99.8733 367.473 100.28 366.193 100.28C364.873 100.28 363.746 99.7733 362.813 98.76C361.879 97.7333 361.413 96.48 361.413 95C361.413 93.52 361.879 92.2733 362.813 91.26C363.746 90.2333 364.873 89.72 366.193 89.72C367.473 89.72 368.466 90.1267 369.173 90.94V90ZM365.073 96.78C365.513 97.22 366.086 97.44 366.793 97.44C367.499 97.44 368.073 97.22 368.513 96.78C368.953 96.34 369.173 95.7467 369.173 95C369.173 94.2533 368.953 93.66 368.513 93.22C368.073 92.78 367.499 92.56 366.793 92.56C366.086 92.56 365.513 92.78 365.073 93.22C364.633 93.66 364.413 94.2533 364.413 95C364.413 95.7467 364.633 96.34 365.073 96.78ZM381.833 94.88C382.727 95.36 383.173 96.1133 383.173 97.14C383.173 97.9933 382.873 98.6867 382.273 99.22C381.687 99.74 380.853 100 379.773 100H374.373V90H379.373C380.453 90 381.287 90.2667 381.873 90.8C382.473 91.32 382.773 92.0067 382.773 92.86C382.773 93.74 382.46 94.4133 381.833 94.88ZM379.053 92.4H377.173V93.8H379.053C379.64 93.8 379.933 93.5733 379.933 93.12C379.933 92.64 379.64 92.4 379.053 92.4ZM379.373 97.52C379.96 97.52 380.253 97.2733 380.253 96.78C380.253 96.3133 379.96 96.08 379.373 96.08H377.173V97.52H379.373ZM391.066 90H394.066V100H391.066V96.4H387.666V100H384.666V90H387.666V93.6H391.066V90ZM403.468 90H405.668V100H402.748V95L398.468 100H396.268V90H399.188V95L403.468 90ZM417.47 100H414.07L410.87 95.58V100H407.87V90H410.87V94.38L413.87 90H417.37L413.73 95L417.47 100ZM426.527 98.76C425.501 99.7733 424.247 100.28 422.767 100.28C421.287 100.28 420.034 99.7733 419.007 98.76C417.981 97.7333 417.467 96.48 417.467 95C417.467 93.52 417.981 92.2733 419.007 91.26C420.034 90.2333 421.287 89.72 422.767 89.72C424.247 89.72 425.501 90.2333 426.527 91.26C427.554 92.2733 428.067 93.52 428.067 95C428.067 96.48 427.554 97.7333 426.527 98.76ZM421.127 96.7C421.567 97.14 422.114 97.36 422.767 97.36C423.421 97.36 423.967 97.14 424.407 96.7C424.847 96.26 425.067 95.6933 425.067 95C425.067 94.3067 424.847 93.74 424.407 93.3C423.967 92.86 423.421 92.64 422.767 92.64C422.114 92.64 421.567 92.86 421.127 93.3C420.687 93.74 420.467 94.3067 420.467 95C420.467 95.6933 420.687 96.26 421.127 96.7ZM437.224 94.88C438.117 95.36 438.564 96.1133 438.564 97.14C438.564 97.9933 438.264 98.6867 437.664 99.22C437.077 99.74 436.244 100 435.164 100H429.764V90H434.764C435.844 90 436.677 90.2667 437.264 90.8C437.864 91.32 438.164 92.0067 438.164 92.86C438.164 93.74 437.851 94.4133 437.224 94.88ZM434.444 92.4H432.564V93.8H434.444C435.031 93.8 435.324 93.5733 435.324 93.12C435.324 92.64 435.031 92.4 434.444 92.4ZM434.764 97.52C435.351 97.52 435.644 97.2733 435.644 96.78C435.644 96.3133 435.351 96.08 434.764 96.08H432.564V97.52H434.764Z" fill="#3E3E3E"/>
<path d="M38.2462 13.8H44.6862V46H37.3262V21.574L31.6222 23.138L29.8282 16.836L38.2462 13.8ZM56.7989 13.8H63.2389V46H55.8789V21.574L50.1749 23.138L48.3809 16.836L56.7989 13.8ZM75.9956 29.716C75.137 30.5747 74.1096 31.004 72.9136 31.004C71.7176 31.004 70.6903 30.5747 69.8316 29.716C68.973 28.8573 68.5436 27.83 68.5436 26.634C68.5436 25.438 68.973 24.4107 69.8316 23.552C70.6903 22.6933 71.7176 22.264 72.9136 22.264C74.1096 22.264 75.137 22.6933 75.9956 23.552C76.8543 24.4107 77.2836 25.438 77.2836 26.634C77.2836 27.83 76.8543 28.8573 75.9956 29.716ZM75.9956 45.356C75.137 46.2147 74.1096 46.644 72.9136 46.644C71.7176 46.644 70.6903 46.2147 69.8316 45.356C68.973 44.4973 68.5436 43.47 68.5436 42.274C68.5436 41.078 68.973 40.0507 69.8316 39.192C70.6903 38.3333 71.7176 37.904 72.9136 37.904C74.1096 37.904 75.137 38.3333 75.9956 39.192C76.8543 40.0507 77.2836 41.078 77.2836 42.274C77.2836 43.47 76.8543 44.4973 75.9956 45.356ZM96.4322 26.864C98.4869 27.5693 100.143 28.7193 101.4 30.314C102.658 31.878 103.286 33.7333 103.286 35.88C103.286 39.2533 102.152 41.8907 99.8822 43.792C97.6129 45.6933 94.8375 46.644 91.5562 46.644C89.0109 46.644 86.7262 46.0613 84.7022 44.896C82.7089 43.7307 81.2369 42.0133 80.2862 39.744L86.6342 36.064C87.4315 38.3333 89.0722 39.468 91.5562 39.468C92.9975 39.468 94.0862 39.1307 94.8222 38.456C95.5582 37.7813 95.9262 36.9227 95.9262 35.88C95.9262 34.8373 95.5582 33.9787 94.8222 33.304C94.0862 32.6293 92.9975 32.292 91.5562 32.292H90.0382L87.2322 28.106L93.0742 20.7H81.2982V13.8H101.998V19.78L96.4322 26.864ZM128.761 42.09C126.461 45.126 123.257 46.644 119.147 46.644C115.038 46.644 111.818 45.126 109.487 42.09C107.187 39.0233 106.037 34.96 106.037 29.9C106.037 24.84 107.187 20.792 109.487 17.756C111.818 14.6893 115.038 13.156 119.147 13.156C123.257 13.156 126.461 14.6893 128.761 17.756C131.092 20.792 132.257 24.84 132.257 29.9C132.257 34.96 131.092 39.0233 128.761 42.09ZM113.397 29.9C113.397 36.2787 115.314 39.468 119.147 39.468C122.981 39.468 124.897 36.2787 124.897 29.9C124.897 23.5213 122.981 20.332 119.147 20.332C115.314 20.332 113.397 23.5213 113.397 29.9Z" fill="#222222"/>
<line x1="145" y1="33.5" x2="476" y2="33.5" stroke="#FBD5CD" stroke-width="5"/>
<line x1="145" y1="113.5" x2="476" y2="113.5" stroke="#FBD5CD" stroke-width="5"/>
</svg>
